<svg width="500" height="78" viewBox="0 0 500 78" fill="none" xmlns="http://www.w3.org/2000/svg">
<path fill-rule="evenodd" clip-rule="evenodd" d="M458.955 37.5313L458.972 62.7794C458.973 63.1605 458.664 63.4703 458.283 63.4703H451.567C451.187 63.4703 450.879 63.1624 450.878 62.782L450.911 25.2135C450.911 18.7458 458.383 13.6799 467 13.6799H467.005C467.426 13.6799 467.74 14.0633 467.674 14.4762L466.605 21.1904C466.555 21.5036 466.299 21.7493 465.982 21.7708C461.929 22.0455 458.946 24.1063 458.946 25.8981L458.94 30.136L465.832 30.1424C466.337 30.1424 466.722 30.5937 466.643 31.0922L465.729 36.8487C465.666 37.2475 465.322 37.5411 464.919 37.5411L458.955 37.5313Z" fill="#333333"/>
<path fill-rule="evenodd" clip-rule="evenodd" d="M126.303 64.1536C123.228 64.1536 120.497 63.4034 118.187 61.9249C115.875 60.4456 114.062 58.2855 112.799 55.5047C111.553 52.7661 110.922 49.4626 110.922 45.6855C110.922 41.9563 111.552 38.6335 112.795 35.8093C114.055 32.9458 115.862 30.6985 118.167 29.1302C120.484 27.5558 123.199 26.7573 126.238 26.7573C128.287 26.7573 130.145 27.0497 131.76 27.6252C131.76 27.6252 131.761 27.6256 131.761 27.6256C133.379 28.2045 134.965 29.1483 136.476 30.4298C136.805 30.7099 136.861 31.1974 136.603 31.5446L134.701 34.1032C134.566 34.2847 134.362 34.4024 134.137 34.4281C133.912 34.4538 133.687 34.3862 133.514 34.2398C132.455 33.345 131.359 32.6873 130.253 32.2846C129.144 31.8823 127.859 31.6782 126.435 31.6782C123.441 31.6782 121.122 32.8073 119.345 35.1289C117.543 37.4848 116.628 41.0144 116.628 45.6198C116.628 50.1766 117.529 53.6254 119.304 55.8707C121.059 58.0893 123.369 59.1674 126.369 59.1674C127.792 59.1674 129.093 58.9433 130.239 58.5014C131.397 58.0538 132.568 57.3478 133.719 56.4017C133.894 56.2587 134.119 56.1938 134.344 56.2221C134.569 56.2511 134.771 56.3715 134.904 56.5541L136.806 59.1784C137.058 59.5256 136.999 60.0078 136.673 60.2852C133.649 62.8521 130.16 64.1536 126.303 64.1536Z" fill="#333333"/>
<path fill-rule="evenodd" clip-rule="evenodd" d="M165.409 55.8896C163.698 58.184 161.37 59.2992 158.293 59.2992C155.219 59.2992 152.915 58.1867 151.249 55.8971C149.547 53.5593 148.684 50.0573 148.684 45.4892C148.684 40.8793 149.557 37.3569 151.279 35.0191V35.0194C152.967 32.7273 155.283 31.6133 158.359 31.6133C161.478 31.6133 163.804 32.7167 165.471 34.9851C167.172 37.3025 168.034 40.7925 168.034 45.3579C168.034 50.009 167.151 53.5525 165.409 55.8896ZM169.652 31.7497V31.7489C166.942 28.4371 163.142 26.7574 158.359 26.7574C155.236 26.7574 152.48 27.5314 150.167 29.0583C147.856 30.5832 146.056 32.8007 144.817 35.6479C143.596 38.4514 142.977 41.7621 142.977 45.4887C142.977 51.21 144.33 55.7868 146.996 59.0925C149.705 62.4508 153.506 64.1535 158.293 64.1535C163.035 64.1535 166.836 62.4289 169.589 59.0276C172.3 55.6777 173.674 51.0783 173.674 45.3573C173.674 39.5911 172.321 35.0128 169.652 31.7497Z" fill="#333333"/>
<path fill-rule="evenodd" clip-rule="evenodd" d="M207.759 63.4322H203.955C203.501 63.4322 203.135 63.065 203.135 62.6121V38.6C203.135 36.0607 202.65 34.21 201.693 33.0991C200.755 32.0111 199.37 31.482 197.461 31.482C195.459 31.482 193.666 32.0375 192.133 33.1334C190.587 34.2376 189.081 35.8724 187.654 37.9954V62.6121C187.654 63.065 187.288 63.4322 186.835 63.4322H183.031C182.578 63.4322 182.211 63.065 182.211 62.6121V28.2996C182.211 27.8468 182.578 27.4796 183.031 27.4796H186.31C186.745 27.4796 187.104 27.8196 187.129 28.2536L187.335 31.9296C190.347 28.4959 193.987 26.7573 198.182 26.7573C201.516 26.7573 204.116 27.777 205.911 29.7876L205.91 29.7872C207.681 31.7699 208.579 34.5587 208.579 38.0751V62.6121C208.579 63.065 208.212 63.4322 207.759 63.4322Z" fill="#333333"/>
<path fill-rule="evenodd" clip-rule="evenodd" d="M243.631 63.4321H239.826C239.373 63.4321 239.006 63.0649 239.006 62.612V38.5999C239.006 36.0605 238.521 34.2099 237.565 33.0989C236.627 32.011 235.242 31.4819 233.332 31.4819C231.331 31.4819 229.538 32.0374 228.004 33.1333C226.459 34.2375 224.953 35.8722 223.527 37.9953V62.612C223.527 63.0649 223.16 63.4321 222.707 63.4321H218.903C218.449 63.4321 218.083 63.0649 218.083 62.612V28.2995C218.083 27.8467 218.449 27.4795 218.903 27.4795H222.182C222.617 27.4795 222.976 27.8195 223.001 28.2535L223.207 31.9295C226.219 28.4958 229.859 26.7572 234.054 26.7572C237.388 26.7572 239.988 27.7769 241.783 29.7875L241.782 29.7871C243.553 31.7698 244.45 34.5586 244.45 38.075V62.612C244.45 63.0649 244.083 63.4321 243.631 63.4321Z" fill="#333333"/>
<path fill-rule="evenodd" clip-rule="evenodd" d="M276.009 43.1595H258.352C258.639 39.3262 259.563 36.4235 261.101 34.5241C262.723 32.5214 264.756 31.5478 267.318 31.5478C270.217 31.5478 272.329 32.5011 273.775 34.4615C275.258 36.4733 276.009 39.3443 276.009 42.9961V43.1595ZM277.806 31.5058C275.379 28.3551 271.806 26.7573 267.187 26.7573C264.267 26.7573 261.667 27.5721 259.457 29.1778C257.264 30.7703 255.56 33.03 254.391 35.895C253.241 38.7151 252.658 42.0314 252.658 45.7508C252.658 51.434 254.024 55.9587 256.717 59.1996C259.447 62.4869 263.257 64.1537 268.039 64.1537C270.316 64.1537 272.424 63.7816 274.306 63.048C276.171 62.3204 278.011 61.2166 279.776 59.7683C280.112 59.4924 280.174 59.0022 279.918 58.6513L278.146 56.2236C277.88 55.8576 277.367 55.7779 277.001 56.0448C275.445 57.1806 273.994 58.0188 272.689 58.5369C271.416 59.0422 269.918 59.2984 268.236 59.2984C265.352 59.2984 263.096 58.3275 261.342 56.33C259.694 54.4549 258.712 51.5718 258.418 47.752H280.436C280.858 47.752 281.21 47.4324 281.252 47.0131C281.342 46.1123 281.387 45.158 281.387 44.1764C281.387 38.8547 280.182 34.5919 277.806 31.5058Z" fill="#333333"/>
<path fill-rule="evenodd" clip-rule="evenodd" d="M363.563 43.1595H345.906C346.194 39.3262 347.117 36.4235 348.655 34.5241C350.277 32.5214 352.311 31.5478 354.872 31.5478C357.772 31.5478 359.883 32.5011 361.329 34.4615C362.812 36.4733 363.563 39.3443 363.563 42.9961V43.1595ZM365.361 31.5058C362.933 28.3551 359.36 26.7573 354.741 26.7573C351.822 26.7573 349.221 27.5721 347.011 29.1778C344.818 30.7703 343.114 33.03 341.945 35.895C340.795 38.7151 340.212 42.0314 340.212 45.7508C340.212 51.434 341.578 55.9587 344.271 59.1996C347.001 62.4869 350.811 64.1537 355.593 64.1537C357.87 64.1537 359.978 63.7816 361.86 63.048C363.726 62.3204 365.566 61.2166 367.33 59.7683C367.666 59.4924 367.728 59.0022 367.472 58.6513L365.701 56.2236C365.434 55.8576 364.921 55.7779 364.555 56.0448C362.999 57.1806 361.548 58.0188 360.243 58.5369C358.971 59.0422 357.472 59.2984 355.79 59.2984C352.906 59.2984 350.651 58.3275 348.896 56.33C347.249 54.4549 346.266 51.5718 345.972 47.752H367.99C368.412 47.752 368.765 47.4324 368.807 47.0131C368.896 46.1123 368.941 45.158 368.941 44.1764C368.941 38.8547 367.737 34.5919 365.361 31.5058Z" fill="#333333"/>
<path fill-rule="evenodd" clip-rule="evenodd" d="M302.842 64.1536C299.766 64.1536 297.036 63.4034 294.726 61.9249C292.413 60.4456 290.6 58.2855 289.338 55.5047C288.092 52.7661 287.461 49.4626 287.461 45.6855C287.461 41.9563 288.091 38.6335 289.334 35.8093C290.593 32.9458 292.401 30.6985 294.707 29.1302C297.022 27.5558 299.737 26.7573 302.777 26.7573C304.826 26.7573 306.685 27.0497 308.299 27.6252L308.3 27.6256C309.917 28.2041 311.503 29.1479 313.014 30.4298C313.345 30.7099 313.4 31.1974 313.142 31.5446L311.24 34.1032C311.105 34.2847 310.901 34.4024 310.676 34.4281C310.45 34.4538 310.226 34.3862 310.053 34.2398C308.994 33.3447 307.897 32.6869 306.792 32.2846C305.683 31.8823 304.398 31.6782 302.973 31.6782C299.98 31.6782 297.661 32.8073 295.885 35.1289C294.081 37.4859 293.167 41.0155 293.167 45.6198C293.167 50.1762 294.068 53.625 295.844 55.8707C297.597 58.0893 299.908 59.1674 302.908 59.1674C304.331 59.1674 305.633 58.9433 306.777 58.5014C307.936 58.0542 309.107 57.3481 310.259 56.4017C310.433 56.2587 310.659 56.1938 310.884 56.2221C311.108 56.2511 311.31 56.3715 311.443 56.5541L313.345 59.1784C313.596 59.5256 313.538 60.0078 313.211 60.2852C310.188 62.8521 306.699 64.1536 302.842 64.1536Z" fill="#333333"/>
<path fill-rule="evenodd" clip-rule="evenodd" d="M329.986 64.1532C327.142 64.1532 324.868 63.2844 323.228 61.5716C321.598 59.8689 320.771 57.4156 320.771 54.2796L320.77 14.4314C320.77 14.0163 321.081 13.6669 321.493 13.6171L325.296 13.1578C325.53 13.1295 325.763 13.2031 325.939 13.3582C326.114 13.5137 326.215 13.7375 326.215 13.9718L326.215 27.4791H334.25C334.488 27.4791 334.715 27.5828 334.87 27.7636C335.026 27.9444 335.096 28.184 335.061 28.4198L334.601 31.5033C334.542 31.9052 334.197 32.203 333.791 32.203H326.215V54.0826C326.215 55.8861 326.569 57.2205 327.268 58.0477C327.94 58.845 328.98 59.2322 330.446 59.2322C332.077 59.2322 333.698 58.7435 335.263 57.7801C335.453 57.6627 335.682 57.628 335.899 57.6846C336.115 57.7405 336.299 57.882 336.408 58.0771L337.917 60.767C338.127 61.1421 338.013 61.6161 337.653 61.8531C335.34 63.3792 332.76 64.1532 329.986 64.1532Z" fill="#333333"/>
<path fill-rule="evenodd" clip-rule="evenodd" d="M397.944 53.5968C396.812 55.4935 395.549 56.9437 394.189 57.909C394.189 57.909 394.189 57.909 394.189 57.9094C392.831 58.8751 391.126 59.3646 389.134 59.3649C386.428 59.3253 384.385 58.1823 382.89 55.8686C381.345 53.4795 380.562 49.965 380.562 45.4233C380.562 40.9387 381.427 37.4453 383.133 35.0396C384.799 32.6901 386.972 31.5478 389.778 31.5478C392.995 31.5478 395.669 33.0618 397.944 36.1747V53.5968ZM402.666 13.5113L398.862 13.0524C398.627 13.0226 398.395 13.0973 398.22 13.2528C398.045 13.4086 397.944 13.632 397.944 13.8668V30.1636C395.501 27.9024 392.542 26.7578 389.122 26.7578C386.198 26.7578 383.616 27.5861 381.446 29.2198C379.3 30.8364 377.642 33.0961 376.52 35.937C375.415 38.7318 374.855 41.9893 374.855 45.6199C374.855 51.2383 376.066 55.7599 378.455 59.0589C380.902 62.4394 384.292 64.1542 388.532 64.1542C391.036 64.1542 393.244 63.5719 395.096 62.4239C396.28 61.6899 397.321 60.7786 398.211 59.7019L398.472 62.6836C398.509 63.1073 398.863 63.4326 399.288 63.4326H402.568C403.021 63.4326 403.388 63.0655 403.388 62.6122V14.3257C403.388 13.9109 403.078 13.5611 402.666 13.5113Z" fill="#333333"/>
<path fill-rule="evenodd" clip-rule="evenodd" d="M433.92 63.0966V30.5952C433.92 30.3684 434.104 30.1846 434.33 30.1846H441.906C442.132 30.1846 442.316 30.3684 442.316 30.5952V63.0966C442.316 63.3234 442.132 63.5072 441.906 63.5072H434.33C434.104 63.5072 433.92 63.3234 433.92 63.0966Z" fill="#333333"/>
<path fill-rule="evenodd" clip-rule="evenodd" d="M444.444 18.7586L438.753 24.4509C438.403 24.8011 437.835 24.8011 437.484 24.4509L431.793 18.7586C431.443 18.4084 431.443 17.8405 431.793 17.4899L437.484 11.7976C437.835 11.4474 438.403 11.4474 438.753 11.7976L444.444 17.4899C444.794 17.8405 444.794 18.4084 444.444 18.7586Z" fill="#333333"/>
<path fill-rule="evenodd" clip-rule="evenodd" d="M424.294 63.5072H424.157C418.666 63.5072 414.214 59.055 414.214 53.5627L414.243 14.5999C414.243 14.2218 414.523 13.9021 414.898 13.8523L421.777 12.9402C422.229 12.8802 422.631 13.2327 422.631 13.6889L422.587 52.9408C422.587 53.7865 423.038 54.7598 424.141 55.1805C425.347 55.6409 426.237 55.0103 427.044 54.573C427.47 54.3416 427.701 54.7477 427.846 55.2756L429.401 61.3298C429.53 61.7079 429.344 62.123 428.974 62.2729C427.87 62.7189 426.061 63.5072 424.294 63.5072Z" fill="#333333"/>
<path fill-rule="evenodd" clip-rule="evenodd" d="M490.784 40.3461L477.839 43.4492C477.839 43.4492 477.719 43.0484 477.735 42.3956C477.834 38.3362 479.633 35.0425 482.809 33.8983C486.567 32.9926 490.348 35.3059 491.253 39.0649L491.342 39.4355C491.439 39.8408 491.19 40.2487 490.784 40.3461ZM484.717 26.8318C475.225 26.8318 469.303 35.4688 469.303 44.1517V46.5544C469.303 53.246 473.851 62.8225 484.651 63.5063C489.395 63.8063 494.377 62.1168 498.063 59.3364C498.416 59.0696 498.483 58.5639 498.222 58.2058L495.358 54.2615C495.104 53.9109 494.619 53.8162 494.255 54.0513C492.961 54.8872 491.731 55.5219 490.567 55.9532C489.211 56.4566 487.768 56.7076 486.238 56.7076C483.788 56.7076 481.832 55.9861 480.367 54.5426C479.431 53.6211 478.749 52.5022 478.356 50.9282C478.307 50.7315 478.153 50.1432 478.153 50.1432L497.985 45.4306C499.194 45.1691 500 44.4453 499.989 43.509C499.971 42.0901 500 42.946 500 42.5675V42.4497V42.2731V42.1837C500 34.1374 493.5 26.8318 484.717 26.8318Z" fill="#333333"/>
<path fill-rule="evenodd" clip-rule="evenodd" d="M83.0852 51.4572L91.6389 42.8211C101.319 33.0491 101.319 17.2052 91.6389 7.43316L91.5669 7.36034C81.8875 -2.4117 66.1937 -2.4117 56.5143 7.36034L53.6769 10.2249L62.458 19.0902L65.3028 16.2183C70.1313 11.3436 77.9597 11.3436 82.7882 16.2183L82.8651 16.2959C87.6936 21.1706 87.6936 29.0739 82.8651 33.9486L79.5665 37.2789L79.5667 37.2791C82.2145 41.5895 83.3874 46.561 83.0852 51.4572Z" fill="#C02539"/>
<path fill-rule="evenodd" clip-rule="evenodd" d="M62.7879 45.6581L33.5957 16.1868C28.7674 11.3123 20.939 11.3123 16.1105 16.1868L16.0334 16.2646C11.2049 21.1393 11.2049 29.0426 16.0334 33.9172C16.0334 33.9172 19.329 37.2441 19.329 37.2443C16.6805 41.5539 15.5072 46.5247 15.8085 51.4205L7.25959 42.7898C-2.41986 33.0178 -2.41986 17.1739 7.25959 7.40185L7.33152 7.32903C17.0112 -2.44301 32.7048 -2.44301 42.3844 7.32903L71.2227 36.4432L71.2175 36.4446C78.5891 43.8867 78.5891 55.9525 71.2175 63.3947L62.7877 71.9053C55.4161 79.3473 43.4643 79.3473 36.0929 71.9053L27.6628 63.3947C20.2912 55.9525 20.2912 43.8867 27.6628 36.4446L36.4502 27.5718L45.2321 36.4377L36.0929 45.6644C33.765 48.0145 33.765 51.8247 36.0929 54.1749L45.2254 63.3947C47.5531 65.7448 51.3273 65.7448 53.6552 63.3947L62.7877 54.1749C65.1156 51.8247 65.1156 48.0145 62.7877 45.6644" fill="#F29534"/>
<mask id="mask0_2423_8254" style="mask-type:luminance" maskUnits="userSpaceOnUse" x="0" y="0" width="77" height="78">
<path fill-rule="evenodd" clip-rule="evenodd" d="M62.7879 45.6581L33.5957 16.1868C28.7674 11.3123 20.939 11.3123 16.1105 16.1868L16.0334 16.2646C11.2049 21.1393 11.2049 29.0426 16.0334 33.9172C16.0334 33.9172 19.329 37.2441 19.329 37.2443C16.6805 41.5539 15.5072 46.5247 15.8085 51.4205L7.25959 42.7898C-2.41986 33.0178 -2.41986 17.1739 7.25959 7.40185L7.33152 7.32903C17.0112 -2.44301 32.7048 -2.44301 42.3844 7.32903L71.2227 36.4432L71.2175 36.4446C78.5891 43.8867 78.5891 55.9525 71.2175 63.3947L62.7877 71.9053C55.4161 79.3473 43.4643 79.3473 36.0929 71.9053L27.6628 63.3947C20.2912 55.9525 20.2912 43.8867 27.6628 36.4446L36.4502 27.5718L45.2321 36.4377L36.0929 45.6644C33.765 48.0145 33.765 51.8247 36.0929 54.1749L45.2254 63.3947C47.5531 65.7448 51.3273 65.7448 53.6552 63.3947L62.7877 54.1749C65.1156 51.8247 65.1156 48.0145 62.7877 45.6644" fill="white"/>
</mask>
<g mask="url(#mask0_2423_8254)">
<mask id="mask1_2423_8254" style="mask-type:luminance" maskUnits="userSpaceOnUse" x="7" y="34" width="19" height="19">
<path fill-rule="evenodd" clip-rule="evenodd" d="M7.73004 43.1551L15.869 51.3719C15.568 46.4762 16.7411 41.5054 19.3895 37.1958C19.3895 37.1956 17.3076 35.0938 16.4533 34.2313L7.73004 34.2313V43.1551ZM25.7132 38.7852C22.8604 42.8029 21.7422 47.6887 22.3586 52.3869H25.7132V38.7852Z" fill="white"/>
</mask>
<g mask="url(#mask1_2423_8254)">
<path fill-rule="evenodd" clip-rule="evenodd" d="M25.7138 43.3466L16.6849 52.3871L7.73004 43.2718L16.759 34.2313L25.7138 43.3466Z" fill="#F59E34"/>
</g>
<mask id="mask2_2423_8254" style="mask-type:luminance" maskUnits="userSpaceOnUse" x="6" y="32" width="19" height="19">
<path fill-rule="evenodd" clip-rule="evenodd" d="M6.3158 41.6681C6.63775 42.0333 6.97214 42.3912 7.31895 42.7414L15.347 50.8462H15.8412C15.6526 46.1214 16.8347 41.3513 19.3883 37.1959C19.3883 37.1957 16.0929 33.8688 16.0929 33.8688C15.7526 33.5251 15.4362 33.1664 15.1438 32.7948H6.3158V41.6681ZM24.1968 41.3183C22.7139 44.2987 22.0546 47.59 22.2189 50.8469H24.1968V41.3183Z" fill="white"/>
</mask>
<g mask="url(#mask2_2423_8254)">
<path fill-rule="evenodd" clip-rule="evenodd" d="M24.1962 41.8577C24.196 41.9273 15.2881 50.8466 15.2191 50.8462C15.1504 50.846 6.3156 41.8529 6.3158 41.7835C6.31599 41.7139 15.2239 32.7946 15.2929 32.7948C15.3616 32.7952 24.1964 41.7881 24.1962 41.8577Z" fill="#F59E34"/>
</g>
<mask id="mask3_2423_8254" style="mask-type:luminance" maskUnits="userSpaceOnUse" x="4" y="31" width="19" height="19">
<path fill-rule="evenodd" clip-rule="evenodd" d="M4.90411 39.9126C5.62832 40.9003 6.43374 41.8463 7.32037 42.7415L13.8223 49.3056H15.8297C15.9271 45.0923 17.1135 40.8999 19.3897 37.196C19.3897 37.1958 16.0944 33.8689 16.0944 33.8689C15.3323 33.0995 14.6905 32.2547 14.169 31.3583L4.90411 31.3583V39.9126H4.90411ZM22.68 45.5637C22.3982 46.7951 22.2389 48.0492 22.2021 49.3063H22.68V45.5637Z" fill="white"/>
</mask>
<g mask="url(#mask3_2423_8254)">
<path fill-rule="evenodd" clip-rule="evenodd" d="M22.6812 40.3689C22.6806 40.5079 13.8937 49.306 13.756 49.3056C13.6183 49.305 4.90352 40.434 4.90411 40.295C4.90451 40.156 13.6914 31.3579 13.8291 31.3583C13.9668 31.3589 22.6818 40.2298 22.6812 40.3689Z" fill="#F59D34"/>
</g>
<mask id="mask4_2423_8254" style="mask-type:luminance" maskUnits="userSpaceOnUse" x="3" y="29" width="17" height="19">
<path fill-rule="evenodd" clip-rule="evenodd" d="M3.49011 37.7601C4.53012 39.5379 5.80664 41.2138 7.31965 42.7413L12.2953 47.7645H15.9133C16.2322 44.076 17.3906 40.4477 19.389 37.1958C19.389 37.1956 16.0937 33.8687 16.0937 33.8687C14.9354 32.6995 14.0551 31.3559 13.4525 29.9217L3.49011 29.9217V37.7601H3.49011Z" fill="white"/>
</mask>
<g mask="url(#mask4_2423_8254)">
<path fill-rule="evenodd" clip-rule="evenodd" d="M21.1641 38.8797C21.1633 39.0883 12.4974 47.7653 12.2909 47.7645C12.0843 47.7637 3.48932 39.0149 3.49011 38.8065C3.49111 38.5979 12.1568 29.9207 12.3635 29.9217C12.5701 29.9225 21.1649 38.6711 21.1641 38.8797Z" fill="#F59D34"/>
</g>
<mask id="mask5_2423_8254" style="mask-type:luminance" maskUnits="userSpaceOnUse" x="2" y="28" width="18" height="19">
<path fill-rule="evenodd" clip-rule="evenodd" d="M2.09912 35.0034C3.30471 37.813 5.04491 40.445 7.31974 42.7416L10.657 46.1108H16.1135C16.5986 42.9967 17.6903 39.9604 19.3891 37.1962C19.3891 37.196 16.0937 33.8691 16.0937 33.8691C14.5413 32.3018 13.4879 30.4213 12.9338 28.4291L2.09912 28.4291V35.0034L2.09912 35.0034Z" fill="white"/>
</mask>
<g mask="url(#mask5_2423_8254)">
<path fill-rule="evenodd" clip-rule="evenodd" d="M19.6132 37.9816C19.5911 38.2588 10.4259 46.133 10.1513 46.1107C9.87671 46.0885 2.07711 36.8356 2.09917 36.5583C2.12102 36.2813 11.2865 28.4069 11.5611 28.4292C11.8355 28.4515 19.6352 37.7044 19.6132 37.9816Z" fill="#F59D34"/>
</g>
<mask id="mask6_2423_8254" style="mask-type:luminance" maskUnits="userSpaceOnUse" x="0" y="26" width="19" height="19">
<path fill-rule="evenodd" clip-rule="evenodd" d="M0.998535 31.886C2.11313 35.8611 4.21999 39.6124 7.31914 42.7412L8.77022 44.2062H16.4878C16.8716 42.5987 17.4213 41.0233 18.137 39.5079V35.9321C17.205 34.9911 16.0931 33.8686 16.0931 33.8686C14.1492 31.9062 12.9879 29.4528 12.6092 26.9037L0.998535 26.9037V31.886H0.998535Z" fill="white"/>
</mask>
<g mask="url(#mask6_2423_8254)">
<path fill-rule="evenodd" clip-rule="evenodd" d="M18.1365 37.2606C18.07 37.6016 8.21606 44.2729 7.87827 44.2057C7.54049 44.1385 0.932472 34.1903 0.999035 33.8493C1.0656 33.5083 10.9195 26.8371 11.2573 26.9043C11.5951 26.9715 18.2031 36.9196 18.1365 37.2606Z" fill="#F49C34"/>
</g>
<mask id="mask7_2423_8254" style="mask-type:luminance" maskUnits="userSpaceOnUse" x="0" y="25" width="17" height="18">
<path fill-rule="evenodd" clip-rule="evenodd" d="M0.224731 27.9333C0.811466 33.0656 2.96925 38.0496 6.69807 42.0914H16.7768V34.5587C16.3768 34.1549 16.094 33.8693 16.094 33.8693C13.7649 31.518 12.5593 28.4619 12.4771 25.381L0.224731 25.381V27.9333H0.224731Z" fill="white"/>
</mask>
<g mask="url(#mask7_2423_8254)">
<path fill-rule="evenodd" clip-rule="evenodd" d="M16.7747 36.3923C16.6495 36.7898 6.26365 42.2156 5.86984 42.0892C5.47622 41.963 0.101706 31.4777 0.226884 31.0803C0.352062 30.6827 10.7379 25.257 11.1317 25.3831C11.5253 25.5095 16.8998 35.9947 16.7747 36.3923Z" fill="#F49C34"/>
</g>
<mask id="mask8_2423_8254" style="mask-type:luminance" maskUnits="userSpaceOnUse" x="0" y="23" width="16" height="17">
<path fill-rule="evenodd" clip-rule="evenodd" d="M0.0874758 23.8674C-0.171582 29.4402 1.40519 35.0839 4.81778 39.7954H15.541V33.2742C13.2223 30.6107 12.2176 27.1884 12.5269 23.8674L0.0874758 23.8674V23.8674Z" fill="white"/>
</mask>
<g mask="url(#mask8_2423_8254)">
<path fill-rule="evenodd" clip-rule="evenodd" d="M15.5348 35.3812C15.3384 35.8255 4.57709 39.9865 4.13678 39.7885C3.69667 39.5903 -0.424872 28.7258 -0.228561 28.2815C-0.0322493 27.837 10.7291 23.676 11.1692 23.8742C11.6095 24.0724 15.7311 34.9369 15.5348 35.3812Z" fill="#F49C34"/>
</g>
<mask id="mask9_2423_8254" style="mask-type:luminance" maskUnits="userSpaceOnUse" x="0" y="22" width="15" height="16">
<path fill-rule="evenodd" clip-rule="evenodd" d="M0.201614 22.3682C-0.341215 27.4882 0.677165 32.7449 3.25675 37.3519H14.4455V31.8115C12.6297 28.977 12.0671 25.5622 12.7577 22.3682L0.201614 22.3682Z" fill="white"/>
</mask>
<g mask="url(#mask9_2423_8254)">
<path fill-rule="evenodd" clip-rule="evenodd" d="M14.4254 34.2383C14.147 34.7182 3.16194 37.6138 2.68666 37.3327C2.21138 37.0517 -0.656792 25.9617 -0.378419 25.4817C-0.100047 25.0019 10.885 22.1063 11.3603 22.3873C11.8356 22.6684 14.7038 33.7585 14.4254 34.2383Z" fill="#F49B34"/>
</g>
<mask id="mask10_2423_8254" style="mask-type:luminance" maskUnits="userSpaceOnUse" x="0" y="20" width="14" height="15">
<path fill-rule="evenodd" clip-rule="evenodd" d="M0.404146 20.8807C-0.372194 25.5461 0.165166 30.391 2.01623 34.8081H13.5143V30.0667C12.2484 27.157 12.1359 23.8593 13.1768 20.8807L0.404146 20.8807V20.8807Z" fill="white"/>
</mask>
<g mask="url(#mask10_2423_8254)">
<path fill-rule="evenodd" clip-rule="evenodd" d="M13.459 32.98C13.0894 33.4821 2.02584 35.1268 1.52831 34.7535C1.03097 34.3804 -0.597935 23.211 -0.228361 22.7089C0.141213 22.2066 11.2048 20.5621 11.7023 20.9352C12.1997 21.3084 13.8286 32.4779 13.459 32.98Z" fill="#F49B34"/>
</g>
<mask id="mask11_2423_8254" style="mask-type:luminance" maskUnits="userSpaceOnUse" x="0" y="19" width="13" height="14">
<path fill-rule="evenodd" clip-rule="evenodd" d="M0.714386 19.32C-0.275308 23.5888 -0.142291 28.0691 1.11344 32.2811H12.8477V28.1022C12.3471 26.0957 12.3471 23.988 12.8477 21.9814V19.32H0.714386V19.32Z" fill="white"/>
</mask>
<g mask="url(#mask11_2423_8254)">
<path fill-rule="evenodd" clip-rule="evenodd" d="M12.6444 31.6186C12.1762 32.1283 1.17167 32.5473 0.666589 32.0747C0.161703 31.6021 -0.253372 20.4923 0.214755 19.9826C0.682882 19.4727 11.6874 19.0538 12.1925 19.5262C12.6974 19.9989 13.1125 31.1089 12.6444 31.6186Z" fill="#F49B34"/>
</g>
<mask id="mask12_2423_8254" style="mask-type:luminance" maskUnits="userSpaceOnUse" x="0" y="17" width="13" height="14">
<path fill-rule="evenodd" clip-rule="evenodd" d="M1.31561 17.1672C-0.0788199 21.4221 -0.311748 25.9799 0.616829 30.336H12.9824V28.5996C12.3022 26.2818 12.3022 23.8039 12.9824 21.4861V17.1672H1.31561V17.1672Z" fill="white"/>
</mask>
<g mask="url(#mask12_2423_8254)">
<path fill-rule="evenodd" clip-rule="evenodd" d="M11.981 30.1743C11.4091 30.6756 0.593905 29.9035 0.0973645 29.3262C-0.399176 28.7487 0.365604 17.8302 0.937648 17.3289C1.50949 16.8277 12.3245 17.5997 12.821 18.1771C13.3176 18.7546 12.5528 29.673 11.981 30.1743Z" fill="#F49A34"/>
</g>
<mask id="mask13_2423_8254" style="mask-type:luminance" maskUnits="userSpaceOnUse" x="0" y="14" width="14" height="15">
<path fill-rule="evenodd" clip-rule="evenodd" d="M2.27435 14.6929C0.283586 19.1177 -0.364828 24.0076 0.329111 28.7353H13.0231C12.1151 25.7657 12.3297 22.5215 13.6669 19.6818V14.6929H2.27435V14.6929Z" fill="white"/>
</mask>
<g mask="url(#mask13_2423_8254)">
<path fill-rule="evenodd" clip-rule="evenodd" d="M11.4814 28.6606C10.8025 29.136 0.301793 27.2151 -0.169116 26.5296C-0.640024 25.8442 1.26268 15.2431 1.94163 14.7677C2.62057 14.2923 13.1212 16.2132 13.5921 16.8986C14.0631 17.5841 12.1603 28.1852 11.4814 28.6606Z" fill="#F49A34"/>
</g>
<mask id="mask14_2423_8254" style="mask-type:luminance" maskUnits="userSpaceOnUse" x="0" y="12" width="15" height="16">
<path fill-rule="evenodd" clip-rule="evenodd" d="M3.52113 12.2813C0.850134 16.8215 -0.274906 22.0312 0.146011 27.1355H12.6464C12.1302 24.0561 12.7617 20.819 14.5408 18.1259V12.2813H3.52113V12.2813Z" fill="white"/>
</mask>
<g mask="url(#mask14_2423_8254)">
<path fill-rule="evenodd" clip-rule="evenodd" d="M11.1487 27.0936C10.3619 27.5243 0.295397 24.5053 -0.131202 23.711C-0.558 22.9166 2.43237 12.7538 3.2194 12.3231C4.00624 11.8925 14.0728 14.9112 14.4993 15.7058C14.9259 16.5002 11.9356 26.663 11.1487 27.0936Z" fill="#F39A34"/>
</g>
<mask id="mask15_2423_8254" style="mask-type:luminance" maskUnits="userSpaceOnUse" x="0" y="9" width="16" height="17">
<path fill-rule="evenodd" clip-rule="evenodd" d="M5.03877 9.99786C2.259 13.7168 0.643012 18.0404 0.190796 22.4624L0.190796 25.5127H12.48C12.3647 22.408 13.3909 19.2682 15.5587 16.7896V9.99786H5.03877V9.99786Z" fill="white"/>
</mask>
<g mask="url(#mask15_2423_8254)">
<path fill-rule="evenodd" clip-rule="evenodd" d="M10.9872 25.4894C10.0943 25.8559 0.576935 21.799 0.213918 20.8975C-0.149099 19.9961 3.86932 10.3877 4.76226 10.0212C5.6552 9.65472 15.1725 13.7116 15.5355 14.6131C15.8986 15.5145 11.8801 25.1229 10.9872 25.4894Z" fill="#F39934"/>
</g>
<mask id="mask16_2423_8254" style="mask-type:luminance" maskUnits="userSpaceOnUse" x="0" y="7" width="17" height="17">
<path fill-rule="evenodd" clip-rule="evenodd" d="M6.81802 7.87512C3.86762 11.0288 1.88336 14.7671 0.865234 18.7072L0.865234 23.8721H12.5269C12.786 21.0781 13.9751 18.3555 16.0941 16.2163L16.1712 16.1387C16.3471 15.9611 16.527 15.7899 16.7106 15.6253V7.87512H6.81802V7.87512Z" fill="white"/>
</mask>
<g mask="url(#mask16_2423_8254)">
<path fill-rule="evenodd" clip-rule="evenodd" d="M11.0092 23.8606C10.015 24.1427 1.15592 19.1199 0.876554 18.1162C0.597188 17.1122 5.57233 8.16859 6.5666 7.88655C7.56087 7.60451 16.4199 12.6272 16.6993 13.631C16.9786 14.6348 12.0035 23.5786 11.0092 23.8606Z" fill="#F39934"/>
</g>
<mask id="mask17_2423_8254" style="mask-type:luminance" maskUnits="userSpaceOnUse" x="1" y="5" width="17" height="18">
<path fill-rule="evenodd" clip-rule="evenodd" d="M1.85339 15.6838C3.06329 12.652 4.88515 9.81098 7.31898 7.35386L7.39111 7.28105C7.856 6.81169 8.33476 6.36488 8.82607 5.94061L17.9835 5.94061V14.6246C17.3442 15.0623 16.7365 15.5671 16.1701 16.139L16.093 16.2166C14.3935 17.9322 13.2922 20.0231 12.7891 22.225H1.85339V15.6838L1.85339 15.6838Z" fill="white"/>
</mask>
<g mask="url(#mask17_2423_8254)">
<path fill-rule="evenodd" clip-rule="evenodd" d="M11.2206 22.2211C10.1331 22.3986 2.03312 16.4955 1.85728 15.3974C1.68143 14.2996 7.52865 6.12206 8.61631 5.94453C9.70377 5.76701 17.8038 11.6702 17.9796 12.7682C18.1555 13.8661 12.3081 22.0436 11.2206 22.2211Z" fill="#F39934"/>
</g>
<mask id="mask18_2423_8254" style="mask-type:luminance" maskUnits="userSpaceOnUse" x="3" y="4" width="17" height="17">
<path fill-rule="evenodd" clip-rule="evenodd" d="M3.16571 12.9077C4.26093 10.9162 5.64593 9.04369 7.3207 7.3529L7.39282 7.28008C8.53975 6.12213 9.77114 5.10141 11.067 4.2179L19.3777 4.2179V13.7997C18.2212 14.3845 17.1366 15.1639 16.1718 16.138L16.0947 16.2156C14.8235 17.4989 13.887 18.9922 13.2851 20.5848H3.16571L3.16571 12.9077H3.16571Z" fill="white"/>
</mask>
<g mask="url(#mask18_2423_8254)">
<path fill-rule="evenodd" clip-rule="evenodd" d="M11.6412 20.5845C10.4719 20.6384 3.21948 13.9548 3.16603 12.7743C3.11258 11.5937 9.73292 4.27218 10.9022 4.21822C12.0716 4.16406 19.324 10.8477 19.3774 12.0282C19.4309 13.2087 12.8105 20.5305 11.6412 20.5845Z" fill="#F39834"/>
</g>
<mask id="mask19_2423_8254" style="mask-type:luminance" maskUnits="userSpaceOnUse" x="4" y="2" width="17" height="17">
<path fill-rule="evenodd" clip-rule="evenodd" d="M4.78387 10.3483C5.53899 9.3005 6.38465 8.29853 7.32087 7.35336L7.39299 7.28054C9.24483 5.41091 11.3168 3.89901 13.5248 2.74481L20.8716 2.74481V13.1656C19.1548 13.7638 17.5425 14.7547 16.172 16.1385L16.0949 16.2161C15.2596 17.0593 14.5688 17.9932 14.0225 18.9864H4.78387V10.3483H4.78387Z" fill="white"/>
</mask>
<g mask="url(#mask19_2423_8254)">
<path fill-rule="evenodd" clip-rule="evenodd" d="M12.2686 18.9855C11.0321 18.8989 4.6991 11.5492 4.78473 10.3011C4.87057 9.05283 12.1506 2.65903 13.3871 2.74568C14.6233 2.83234 20.9566 10.182 20.8707 11.4303C20.7851 12.6784 13.5051 19.0722 12.2686 18.9855Z" fill="#F39834"/>
</g>
<mask id="mask20_2423_8254" style="mask-type:luminance" maskUnits="userSpaceOnUse" x="6" y="1" width="17" height="17">
<path fill-rule="evenodd" clip-rule="evenodd" d="M6.62952 8.07644C6.85344 7.83181 7.08308 7.5906 7.31845 7.35298L7.39058 7.28017C9.94487 4.70133 12.918 2.80309 16.089 1.58539L22.3964 1.58539V12.7418C20.1146 13.2182 17.9403 14.3503 16.1695 16.1381L16.0925 16.2157C15.6873 16.6247 15.3162 17.055 14.979 17.5031H6.62952V8.07644H6.62952Z" fill="white"/>
</mask>
<g mask="url(#mask20_2423_8254)">
<path fill-rule="evenodd" clip-rule="evenodd" d="M13.0484 17.4953C11.7622 17.254 6.39823 9.3641 6.63726 8.06564C6.87609 6.76718 14.6912 1.35189 15.9775 1.59321C17.2637 1.83432 22.6277 9.72417 22.3887 11.0228C22.1496 12.3213 14.3345 17.7366 13.0484 17.4953Z" fill="#F39834"/>
</g>
<mask id="mask21_2423_8254" style="mask-type:luminance" maskUnits="userSpaceOnUse" x="8" y="0" width="16" height="17">
<path fill-rule="evenodd" clip-rule="evenodd" d="M16.1546 16.1549L16.171 16.1384C18.3384 13.9502 21.1104 12.7443 23.9441 12.5206V0.736023H18.7449C15.1161 1.67428 11.6568 3.45418 8.67114 6.0758L8.67114 16.1549H16.1546Z" fill="white"/>
</mask>
<g mask="url(#mask21_2423_8254)">
<path fill-rule="evenodd" clip-rule="evenodd" d="M13.977 16.1285C12.6603 15.7217 8.29435 7.42205 8.6973 6.0925C9.10045 4.76315 17.3215 0.355447 18.6382 0.762457C19.955 1.16927 24.3209 9.46893 23.918 10.7983C23.5148 12.1278 15.2938 16.5353 13.977 16.1285Z" fill="#F39734"/>
</g>
<mask id="mask22_2423_8254" style="mask-type:luminance" maskUnits="userSpaceOnUse" x="10" y="0" width="16" height="15">
<path fill-rule="evenodd" clip-rule="evenodd" d="M17.5192 14.9589C19.8716 13.1821 22.7083 12.3613 25.5082 12.4965V0.177673H21.5821C17.8075 0.692459 14.1278 2.08506 10.8671 4.35557L10.8671 14.9589H17.5192Z" fill="white"/>
</mask>
<g mask="url(#mask22_2423_8254)">
<path fill-rule="evenodd" clip-rule="evenodd" d="M15.0423 14.8926C13.7156 14.3121 10.3576 5.73221 10.9327 4.39283C11.5075 3.05345 20.0061 -0.336622 21.333 0.243903C22.6597 0.824228 26.0176 9.40413 25.4426 10.7437C24.8676 12.0831 16.369 15.4732 15.0423 14.8926Z" fill="#F39734"/>
</g>
<mask id="mask23_2423_8254" style="mask-type:luminance" maskUnits="userSpaceOnUse" x="13" y="-1" width="15" height="15">
<path fill-rule="evenodd" clip-rule="evenodd" d="M19.1015 13.9442C21.5745 12.6136 24.4009 12.1914 27.0982 12.6776V0.0478387C26.3733 -0.0163619 25.6462 -0.0484619 24.919 -0.0484619C20.8726 -0.0484619 16.8262 0.945559 13.1702 2.93371L13.1702 13.9442H19.1015Z" fill="white"/>
</mask>
<g mask="url(#mask23_2423_8254)">
<path fill-rule="evenodd" clip-rule="evenodd" d="M16.2337 13.7985C14.9188 13.0394 12.563 4.30389 13.3151 2.97634C14.0669 1.64879 22.7195 -0.729273 24.0345 0.029783C25.3497 0.788839 27.7052 9.5242 26.9533 10.8519C26.2015 12.1795 17.5487 14.5576 16.2337 13.7985Z" fill="#F29734"/>
</g>
<mask id="mask24_2423_8254" style="mask-type:luminance" maskUnits="userSpaceOnUse" x="15" y="-1" width="14" height="15">
<path fill-rule="evenodd" clip-rule="evenodd" d="M20.8825 13.1615C23.4234 12.2791 26.1925 12.2567 28.745 13.0941V0.249779C27.4777 0.0509508 26.1981 -0.0484619 24.9184 -0.0484619C21.7179 -0.0484619 18.5173 0.573429 15.5099 1.81726L15.5099 13.1615H20.8825Z" fill="white"/>
</mask>
<g mask="url(#mask24_2423_8254)">
<path fill-rule="evenodd" clip-rule="evenodd" d="M17.5368 12.8523C16.256 11.9121 14.8848 3.13921 15.8163 1.84616C16.7476 0.553122 25.4373 -0.831192 26.7181 0.109203C27.9989 1.0494 29.3701 9.82227 28.4386 11.1153C27.5073 12.4084 18.8176 13.7925 17.5368 12.8523Z" fill="#F29634"/>
</g>
<mask id="mask25_2423_8254" style="mask-type:luminance" maskUnits="userSpaceOnUse" x="17" y="-1" width="14" height="14">
<path fill-rule="evenodd" clip-rule="evenodd" d="M22.5229 12.7166C24.1003 12.4044 25.7263 12.4044 27.3037 12.7166H30.5348V0.598965C28.6889 0.167344 26.8035 -0.0484619 24.9181 -0.0484619C22.5057 -0.0484619 20.0932 0.304864 17.7635 1.01154L17.7635 12.7166H22.5229Z" fill="white"/>
</mask>
<g mask="url(#mask25_2423_8254)">
<path fill-rule="evenodd" clip-rule="evenodd" d="M18.9366 12.0637C17.7132 10.9422 17.2997 2.24292 18.4106 1.00785C19.5215 -0.22722 28.1384 -0.644861 29.3617 0.476672C30.5851 1.59821 30.9986 10.2977 29.8877 11.5327C28.7768 12.7678 20.1599 13.1852 18.9366 12.0637Z" fill="#F29634"/>
</g>
<mask id="mask26_2423_8254" style="mask-type:luminance" maskUnits="userSpaceOnUse" x="19" y="-1" width="14" height="14">
<path fill-rule="evenodd" clip-rule="evenodd" d="M22.4071 12.74C24.0587 12.3966 25.7664 12.3966 27.4181 12.74H32.577V1.17066C30.0918 0.357902 27.5046 -0.0484619 24.9174 -0.0484619C23.1954 -0.0484619 21.4734 0.131567 19.7814 0.491633L19.7814 12.74H22.4071Z" fill="white"/>
</mask>
<g mask="url(#mask26_2423_8254)">
<path fill-rule="evenodd" clip-rule="evenodd" d="M20.4156 11.4373C19.2739 10.1369 19.7835 1.61513 21.0717 0.462306C22.36 -0.690319 30.801 -0.17559 31.9427 1.12488C33.0846 2.42534 32.5748 10.9471 31.2866 12.0997C29.9985 13.2525 21.5573 12.7378 20.4156 11.4373Z" fill="#F29634"/>
</g>
<mask id="mask27_2423_8254" style="mask-type:luminance" maskUnits="userSpaceOnUse" x="21" y="-1" width="14" height="15">
<path fill-rule="evenodd" clip-rule="evenodd" d="M21.6009 12.9366C24.0217 12.2594 26.6068 12.3395 28.9888 13.1769H34.7998V2.01858C31.6562 0.640534 28.2874 -0.0484619 24.9186 -0.0484619C23.81 -0.0484619 22.7014 0.0261459 21.6009 0.175364L21.6009 12.9366H21.6009Z" fill="white"/>
</mask>
<g mask="url(#mask27_2423_8254)">
<path fill-rule="evenodd" clip-rule="evenodd" d="M21.9593 10.9798C20.9241 9.50544 22.317 1.25913 23.7776 0.214021C25.238 -0.831085 33.406 0.575094 34.4414 2.04968C35.4766 3.52406 34.0837 11.7702 32.6231 12.8155C31.1627 13.8606 22.9945 12.4542 21.9593 10.9798Z" fill="#F29534"/>
</g>
<mask id="mask28_2423_8254" style="mask-type:luminance" maskUnits="userSpaceOnUse" x="23" y="0" width="15" height="14">
<path fill-rule="evenodd" clip-rule="evenodd" d="M23.3394 12.5837C25.8083 12.2658 28.3541 12.6996 30.6134 13.8852H37.0387V3.14096C33.9599 1.39674 30.5907 0.368043 27.1692 0.0548096L23.3394 0.0548096L23.3394 12.5837H23.3394Z" fill="white"/>
</mask>
<g mask="url(#mask28_2423_8254)">
<path fill-rule="evenodd" clip-rule="evenodd" d="M23.5475 10.6952C22.6445 9.05471 24.8742 1.1767 26.4992 0.264987C28.1241 -0.646722 35.9275 1.60437 36.8305 3.24484C37.7336 4.88552 35.5038 12.7633 33.8789 13.675C32.2538 14.5868 24.4506 12.3357 23.5475 10.6952Z" fill="#F29534"/>
</g>
<mask id="mask29_2423_8254" style="mask-type:luminance" maskUnits="userSpaceOnUse" x="25" y="0" width="15" height="15">
<path fill-rule="evenodd" clip-rule="evenodd" d="M25.0543 12.4838C27.5219 12.5119 29.9828 13.2813 32.0813 14.7919H39.2077V4.52364C36.4207 2.53401 33.3181 1.19385 30.1058 0.503113L25.0543 0.503113V12.4838H25.0543Z" fill="white"/>
</mask>
<g mask="url(#mask29_2423_8254)">
<path fill-rule="evenodd" clip-rule="evenodd" d="M25.1704 10.5896C24.4257 8.79422 27.4385 1.37217 29.2168 0.620332C30.9951 -0.131502 38.3469 2.91014 39.0916 4.70547C39.8363 6.50081 36.8235 13.9229 35.0451 14.6747C33.2668 15.4265 25.9151 12.3849 25.1704 10.5896Z" fill="#F29534"/>
</g>
<mask id="mask30_2423_8254" style="mask-type:luminance" maskUnits="userSpaceOnUse" x="26" y="1" width="16" height="15">
<path fill-rule="evenodd" clip-rule="evenodd" d="M26.7509 12.6206C29.1582 12.9841 31.4798 14.0659 33.3761 15.8659H41.2506V6.15231C38.7018 3.89342 35.8035 2.25174 32.7468 1.22723L26.7509 1.22723V12.6206H26.7509Z" fill="white"/>
</mask>
<g mask="url(#mask30_2423_8254)">
<path fill-rule="evenodd" clip-rule="evenodd" d="M26.8076 10.6698C26.247 8.73501 29.9811 1.85055 31.8977 1.28447C33.8142 0.718589 40.6334 4.48859 41.1939 6.42334C41.7546 8.35809 38.0203 15.2428 36.1039 15.8086C34.1873 16.3745 27.3681 12.6045 26.8076 10.6698Z" fill="#F29434"/>
</g>
<mask id="mask31_2423_8254" style="mask-type:luminance" maskUnits="userSpaceOnUse" x="28" y="2" width="16" height="16">
<path fill-rule="evenodd" clip-rule="evenodd" d="M28.4318 12.9955C30.3443 13.5666 32.1469 14.6141 33.6564 16.138L34.6014 17.092H43.14V7.98183L42.4449 7.28009C40.3116 5.12629 37.8861 3.44722 35.2972 2.24286H28.4318V12.9955H28.4318Z" fill="white"/>
</mask>
<g mask="url(#mask31_2423_8254)">
<path fill-rule="evenodd" clip-rule="evenodd" d="M28.4517 10.946C28.1 8.89111 32.4839 2.61827 34.5195 2.26302C36.5549 1.90796 42.7683 6.33392 43.12 8.38882C43.4717 10.4437 39.0879 16.7168 37.0525 17.0718C35.0168 17.4269 28.8034 13.0009 28.4517 10.946Z" fill="#F19434"/>
</g>
<mask id="mask32_2423_8254" style="mask-type:luminance" maskUnits="userSpaceOnUse" x="30" y="3" width="15" height="16">
<path fill-rule="evenodd" clip-rule="evenodd" d="M30.0787 13.6205C31.3741 14.2216 32.5877 15.0609 33.6548 16.1382L35.9578 18.4631H44.8415V9.7014L42.4433 7.28028C40.9993 5.82236 39.4214 4.58196 37.7495 3.55908L30.0787 3.55908V13.6205H30.0787Z" fill="white"/>
</mask>
<g mask="url(#mask32_2423_8254)">
<path fill-rule="evenodd" clip-rule="evenodd" d="M30.0808 11.4323C29.9602 9.28087 34.9119 3.68303 37.0429 3.56127C39.1741 3.43951 44.7187 8.43856 44.8394 10.59C44.9602 12.7416 40.0083 18.3392 37.8773 18.4609C35.7462 18.5829 30.2014 13.5837 30.0808 11.4323Z" fill="#F19434"/>
</g>
<mask id="mask33_2423_8254" style="mask-type:luminance" maskUnits="userSpaceOnUse" x="31" y="5" width="16" height="15">
<path fill-rule="evenodd" clip-rule="evenodd" d="M31.6472 14.494C32.358 14.961 33.0317 15.5093 33.6553 16.1389L37.3988 19.9181H46.3261V11.2003L42.4438 7.28094C41.6599 6.48948 40.8365 5.76213 39.98 5.09888H31.6472V14.494H31.6472Z" fill="white"/>
</mask>
<g mask="url(#mask33_2423_8254)">
<path fill-rule="evenodd" clip-rule="evenodd" d="M31.6472 12.5037C31.6484 10.2793 36.7881 5.09767 38.9914 5.09888C41.1947 5.10008 46.3272 10.2889 46.3261 12.5133C46.3249 14.7377 41.1852 19.9193 38.9819 19.9181C36.7785 19.9169 31.646 14.7281 31.6472 12.5037Z" fill="#F19334"/>
</g>
<mask id="mask34_2423_8254" style="mask-type:luminance" maskUnits="userSpaceOnUse" x="33" y="6" width="15" height="16">
<path fill-rule="evenodd" clip-rule="evenodd" d="M33.1686 15.6731C33.334 15.8231 33.4963 15.9783 33.6553 16.1389L38.817 21.3498H47.7442V12.632L42.4438 7.28099C42.2255 7.06059 42.0042 6.84516 41.7799 6.6347L33.1686 6.6347V15.6731H33.1686Z" fill="white"/>
</mask>
<g mask="url(#mask34_2423_8254)">
<path fill-rule="evenodd" clip-rule="evenodd" d="M33.1686 13.9876C33.1698 11.6935 38.1889 6.6335 40.4612 6.6347C42.7333 6.63611 47.7455 11.703 47.7442 13.997C47.743 16.2908 42.7239 21.351 40.4518 21.3498C38.1795 21.3484 33.1674 16.2816 33.1686 13.9876Z" fill="#F19334"/>
</g>
<mask id="mask35_2423_8254" style="mask-type:luminance" maskUnits="userSpaceOnUse" x="34" y="8" width="16" height="15">
<path fill-rule="evenodd" clip-rule="evenodd" d="M34.6901 17.1833L40.2351 22.7812H49.1625V14.0636L43.3253 8.17053L34.6901 8.17053V17.1833Z" fill="white"/>
</mask>
<g mask="url(#mask35_2423_8254)">
<path fill-rule="evenodd" clip-rule="evenodd" d="M34.6901 15.4712C34.6913 13.1078 39.5898 8.16913 41.9308 8.17053C44.2718 8.17174 49.1637 13.117 49.1625 15.4805C49.1611 17.8439 44.2627 22.7826 41.9217 22.7812C39.5806 22.78 34.6889 17.8347 34.6901 15.4712Z" fill="#F19334"/>
</g>
<mask id="mask36_2423_8254" style="mask-type:luminance" maskUnits="userSpaceOnUse" x="36" y="9" width="15" height="16">
<path fill-rule="evenodd" clip-rule="evenodd" d="M36.2115 18.7192L41.6533 24.2129H50.5806V15.4952L44.8466 9.70636L36.2115 9.70636V18.7192H36.2115Z" fill="white"/>
</mask>
<g mask="url(#mask36_2423_8254)">
<path fill-rule="evenodd" clip-rule="evenodd" d="M36.2115 16.9551C36.2129 14.5221 40.9908 9.70516 43.4006 9.70636C45.8105 9.70776 50.5818 14.5313 50.5806 16.9643C50.5792 19.3972 45.8014 24.2143 43.3916 24.2129C40.9816 24.2117 36.2102 19.3881 36.2115 16.9551Z" fill="#F19234"/>
</g>
<mask id="mask37_2423_8254" style="mask-type:luminance" maskUnits="userSpaceOnUse" x="37" y="11" width="15" height="15">
<path fill-rule="evenodd" clip-rule="evenodd" d="M37.733 20.2547L43.0715 25.6442H51.9988V16.9265L46.3682 11.242H37.733V20.2547H37.733Z" fill="white"/>
</mask>
<g mask="url(#mask37_2423_8254)">
<path fill-rule="evenodd" clip-rule="evenodd" d="M37.733 18.4386C37.7344 15.9362 42.3916 11.2406 44.8704 11.242C47.3491 11.2434 52.0002 15.9452 51.9988 18.4476C51.9974 20.9501 47.3402 25.6456 44.8614 25.6442C42.3827 25.6428 37.7316 20.941 37.733 18.4386Z" fill="#F19234"/>
</g>
<mask id="mask38_2423_8254" style="mask-type:luminance" maskUnits="userSpaceOnUse" x="39" y="12" width="15" height="16">
<path fill-rule="evenodd" clip-rule="evenodd" d="M39.2546 21.7906L44.4899 27.0759H53.4171V18.3581L47.8898 12.778H39.2546V21.7906H39.2546Z" fill="white"/>
</mask>
<g mask="url(#mask38_2423_8254)">
<path fill-rule="evenodd" clip-rule="evenodd" d="M39.2546 19.9224C39.256 17.3504 43.7926 12.7766 46.3403 12.778C48.8878 12.7794 53.4185 17.3594 53.4171 19.9313C53.4157 22.5033 48.8791 27.0773 46.3314 27.0759C43.7839 27.0745 39.2532 22.4945 39.2546 19.9224Z" fill="#F19234"/>
</g>
<mask id="mask39_2423_8254" style="mask-type:luminance" maskUnits="userSpaceOnUse" x="40" y="14" width="15" height="15">
<path fill-rule="evenodd" clip-rule="evenodd" d="M40.776 23.3265L45.9079 28.5074H54.8351V19.7897L49.4111 14.3138H40.776L40.776 23.3265H40.776Z" fill="white"/>
</mask>
<g mask="url(#mask39_2423_8254)">
<path fill-rule="evenodd" clip-rule="evenodd" d="M40.776 21.4063C40.7774 18.7649 45.1934 14.3124 47.8098 14.3138C50.4264 14.3152 54.8367 18.7735 54.8351 21.4151C54.8337 24.0566 50.4177 28.509 47.8013 28.5074C45.1849 28.506 40.7746 24.0478 40.776 21.4063Z" fill="#F19134"/>
</g>
<mask id="mask40_2423_8254" style="mask-type:luminance" maskUnits="userSpaceOnUse" x="42" y="15" width="15" height="15">
<path fill-rule="evenodd" clip-rule="evenodd" d="M42.2974 24.8624L47.326 29.9391H56.2533V21.2215L50.9325 15.8498H42.2974V24.8624H42.2974Z" fill="white"/>
</mask>
<g mask="url(#mask40_2423_8254)">
<path fill-rule="evenodd" clip-rule="evenodd" d="M42.2974 22.8901C42.2988 20.1791 46.5942 15.8482 49.2795 15.8498C51.9649 15.8512 56.2547 20.1877 56.2533 22.8987C56.2518 25.6098 51.9564 29.9407 49.271 29.9391C46.5858 29.9377 42.296 25.6012 42.2974 22.8901Z" fill="#F09134"/>
</g>
<mask id="mask41_2423_8254" style="mask-type:luminance" maskUnits="userSpaceOnUse" x="43" y="17" width="15" height="15">
<path fill-rule="evenodd" clip-rule="evenodd" d="M43.8187 26.3983L48.7442 31.3708H57.6714V22.6531L52.4538 17.3856L43.8187 17.3856V26.3983H43.8187Z" fill="white"/>
</mask>
<g mask="url(#mask41_2423_8254)">
<path fill-rule="evenodd" clip-rule="evenodd" d="M43.8187 24.374C43.8203 21.5935 47.9951 17.3842 50.7492 17.3856C53.5033 17.3872 57.6728 21.602 57.6714 24.3824C57.6698 27.1629 53.495 31.3724 50.7409 31.3708C47.9868 31.3692 43.8171 27.1545 43.8187 24.374Z" fill="#F09134"/>
</g>
<mask id="mask42_2423_8254" style="mask-type:luminance" maskUnits="userSpaceOnUse" x="45" y="18" width="15" height="15">
<path fill-rule="evenodd" clip-rule="evenodd" d="M45.3401 27.9342L50.1623 32.8024H59.0894V24.0847L53.9752 18.9216L45.3401 18.9216L45.3401 27.9342H45.3401Z" fill="white"/>
</mask>
<g mask="url(#mask42_2423_8254)">
<path fill-rule="evenodd" clip-rule="evenodd" d="M45.3401 25.8578C45.3417 23.0077 49.3959 18.92 52.2189 18.9216C55.042 18.9232 59.091 23.0161 59.0894 25.8662C59.0878 28.7161 55.0337 32.804 52.2106 32.8024C49.3875 32.8008 45.3385 28.7079 45.3401 25.8578Z" fill="#F09034"/>
</g>
<mask id="mask43_2423_8254" style="mask-type:luminance" maskUnits="userSpaceOnUse" x="46" y="20" width="15" height="15">
<path fill-rule="evenodd" clip-rule="evenodd" d="M46.8618 29.4701L51.5808 34.2341H60.5078V25.5163L55.4968 20.4574H46.8618L46.8618 29.4701H46.8618Z" fill="white"/>
</mask>
<g mask="url(#mask43_2423_8254)">
<path fill-rule="evenodd" clip-rule="evenodd" d="M46.8618 27.3417C46.8633 24.4222 50.7969 20.4558 53.6889 20.4574C56.5808 20.459 60.5094 24.4304 60.5078 27.3499C60.5062 30.2694 56.5726 34.2355 53.6808 34.2341C50.7888 34.2325 46.8602 30.2611 46.8618 27.3417Z" fill="#F09034"/>
</g>
<mask id="mask44_2423_8254" style="mask-type:luminance" maskUnits="userSpaceOnUse" x="48" y="21" width="14" height="15">
<path fill-rule="evenodd" clip-rule="evenodd" d="M48.3832 31.0055L52.9988 35.6652H61.9259V26.9475L57.0183 21.993L48.3832 21.993V31.0055H48.3832Z" fill="white"/>
</mask>
<g mask="url(#mask44_2423_8254)">
<path fill-rule="evenodd" clip-rule="evenodd" d="M48.3832 28.8251C48.3848 25.836 52.1977 21.9914 55.1585 21.993C58.1193 21.9946 61.9275 25.844 61.9259 28.8331C61.9243 31.8222 58.1113 35.6668 55.1506 35.6652C52.1898 35.6636 48.3816 31.8142 48.3832 28.8251Z" fill="#F09034"/>
</g>
<mask id="mask45_2423_8254" style="mask-type:luminance" maskUnits="userSpaceOnUse" x="49" y="23" width="15" height="15">
<path fill-rule="evenodd" clip-rule="evenodd" d="M49.9047 32.5413L54.417 37.0967H63.3442V28.3791L58.5399 23.5288H49.9047V32.5413H49.9047Z" fill="white"/>
</mask>
<g mask="url(#mask45_2423_8254)">
<path fill-rule="evenodd" clip-rule="evenodd" d="M49.9047 30.3088C49.9063 27.2503 53.5988 23.527 56.6283 23.5288C59.6578 23.5304 63.3458 27.2581 63.3442 30.3168C63.3424 33.3753 59.6501 37.0983 56.6204 37.0967C53.5909 37.0951 49.9031 33.3672 49.9047 30.3088Z" fill="#F08F34"/>
</g>
<mask id="mask46_2423_8254" style="mask-type:luminance" maskUnits="userSpaceOnUse" x="51" y="25" width="14" height="14">
<path fill-rule="evenodd" clip-rule="evenodd" d="M51.4261 34.0772L55.8352 38.5285H64.7623V29.8108L60.0612 25.0647L51.4261 25.0647V34.0772H51.4261Z" fill="white"/>
</mask>
<g mask="url(#mask46_2423_8254)">
<path fill-rule="evenodd" clip-rule="evenodd" d="M51.4261 31.7927C51.4279 28.6646 54.9996 25.0631 58.0981 25.0647C61.1965 25.0665 64.7639 28.6724 64.7623 31.8005C64.7605 34.9286 61.1888 38.5301 58.0903 38.5285C54.9919 38.5267 51.4245 34.9208 51.4261 31.7927Z" fill="#F08F34"/>
</g>
<mask id="mask47_2423_8254" style="mask-type:luminance" maskUnits="userSpaceOnUse" x="52" y="26" width="15" height="14">
<path fill-rule="evenodd" clip-rule="evenodd" d="M52.9476 35.6142L57.2535 39.9613H66.1805V31.2435L61.5828 26.6018L52.9476 26.6018V35.6142H52.9476Z" fill="white"/>
</mask>
<g mask="url(#mask47_2423_8254)">
<path fill-rule="evenodd" clip-rule="evenodd" d="M52.9476 33.2776C52.9494 30.0801 56.4005 26.6 59.5679 26.6018C62.7351 26.6034 66.1823 30.0878 66.1805 33.2853C66.1787 36.483 62.7276 39.9629 59.5602 39.9613C56.393 39.9595 52.9458 36.4752 52.9476 33.2776Z" fill="#F08F34"/>
</g>
<mask id="mask48_2423_8254" style="mask-type:luminance" maskUnits="userSpaceOnUse" x="54" y="28" width="14" height="14">
<path fill-rule="evenodd" clip-rule="evenodd" d="M54.469 37.1489L58.6715 41.3915H67.5986V32.6739L63.1041 28.1364L54.469 28.1364V37.1489H54.469Z" fill="white"/>
</mask>
<g mask="url(#mask48_2423_8254)">
<path fill-rule="evenodd" clip-rule="evenodd" d="M54.469 34.7602C54.4708 31.4931 57.8013 28.1345 61.0375 28.1364C64.2736 28.1382 67.6004 31.5008 67.5986 34.7679C67.5968 38.035 64.2663 41.3934 61.0301 41.3915C57.794 41.3897 54.4672 38.0273 54.469 34.7602Z" fill="#EF8E34"/>
</g>
<mask id="mask49_2423_8254" style="mask-type:luminance" maskUnits="userSpaceOnUse" x="55" y="29" width="15" height="14">
<path fill-rule="evenodd" clip-rule="evenodd" d="M55.9905 38.6859L60.0898 42.8243H69.0168V34.1066L64.6257 29.6735L55.9905 29.6735V38.6859H55.9905Z" fill="white"/>
</mask>
<g mask="url(#mask49_2423_8254)">
<path fill-rule="evenodd" clip-rule="evenodd" d="M55.9905 36.2452C55.9923 32.9085 59.2024 29.6717 62.5073 29.6735C65.8124 29.6753 69.0186 32.9159 69.0168 36.2526C69.015 39.5891 65.805 42.8262 62.4999 42.8243C59.195 42.8225 55.9887 39.5819 55.9905 36.2452Z" fill="#EF8E34"/>
</g>
<mask id="mask50_2423_8254" style="mask-type:luminance" maskUnits="userSpaceOnUse" x="57" y="31" width="14" height="14">
<path fill-rule="evenodd" clip-rule="evenodd" d="M57.5119 40.2218L61.508 44.2561H70.4351V35.5384L66.147 31.2093L57.5119 31.2093V40.2218H57.5119Z" fill="white"/>
</mask>
<g mask="url(#mask50_2423_8254)">
<path fill-rule="evenodd" clip-rule="evenodd" d="M57.5119 37.7291C57.5137 34.3229 60.6032 31.2075 63.9771 31.2093C67.3509 31.2113 70.4369 34.3302 70.4351 37.7363C70.4331 41.1424 67.3438 44.2579 63.9699 44.2561C60.5961 44.2543 57.5101 41.1352 57.5119 37.7291Z" fill="#EF8E34"/>
</g>
<mask id="mask51_2423_8254" style="mask-type:luminance" maskUnits="userSpaceOnUse" x="59" y="32" width="13" height="14">
<path fill-rule="evenodd" clip-rule="evenodd" d="M59.0334 41.7575L62.8492 45.6098L62.849 45.6162C62.8724 45.6399 62.8956 45.6636 62.9186 45.6876H71.8532V37.0019C71.667 36.7969 71.4756 36.595 71.2789 36.3964L71.2838 36.395L67.6685 32.7451L59.0334 32.7451V41.7575H59.0334Z" fill="white"/>
</mask>
<g mask="url(#mask51_2423_8254)">
<path fill-rule="evenodd" clip-rule="evenodd" d="M59.0334 39.2127C59.0352 35.737 62.0041 32.7431 65.4469 32.7451C68.8895 32.7469 71.855 35.7442 71.8532 39.22C71.8512 42.6955 68.8825 45.6894 65.4397 45.6876C61.9971 45.6856 59.0316 42.6885 59.0334 39.2127Z" fill="#EF8D34"/>
</g>
<mask id="mask52_2423_8254" style="mask-type:luminance" maskUnits="userSpaceOnUse" x="60" y="34" width="14" height="14">
<path fill-rule="evenodd" clip-rule="evenodd" d="M60.5522 43.2907L62.8483 45.6088L62.8481 45.6152C63.2979 46.0693 63.6607 46.5778 63.9367 47.1198H73.272V38.7628C72.6814 37.9334 72.0167 37.1412 71.278 36.3954L71.2829 36.394L69.1873 34.2783L60.5522 34.2783V43.2907H60.5522Z" fill="white"/>
</mask>
<g mask="url(#mask52_2423_8254)">
<path fill-rule="evenodd" clip-rule="evenodd" d="M69.3485 34.77C72.592 36.1284 74.1307 39.8842 72.7849 43.1587C71.4394 46.4334 67.7192 47.9866 64.4757 46.6282C61.2322 45.2698 59.6935 41.514 61.0393 38.2393C62.3848 34.9647 66.105 33.4115 69.3485 34.77Z" fill="#EF8D34"/>
</g>
<mask id="mask53_2423_8254" style="mask-type:luminance" maskUnits="userSpaceOnUse" x="61" y="35" width="14" height="14">
<path fill-rule="evenodd" clip-rule="evenodd" d="M61.726 44.4759L62.8482 45.6088L62.848 45.6152C63.6819 46.4571 64.2171 47.4865 64.4535 48.569H74.5375V40.8014C73.689 39.2192 72.6024 37.7327 71.2779 36.3954L71.2828 36.394L70.5311 35.6351L61.726 35.6351V44.4759H61.726Z" fill="white"/>
</mask>
<g mask="url(#mask53_2423_8254)">
<path fill-rule="evenodd" clip-rule="evenodd" d="M61.7878 41.176C62.2806 37.7362 65.6417 35.2001 69.0489 35.6975C72.4564 36.1948 74.9683 39.5883 74.4757 43.0281C73.9829 46.468 70.6218 49.0041 67.2144 48.5066C63.8071 48.0093 61.295 44.6159 61.7878 41.176Z" fill="#EE8B34"/>
</g>
<mask id="mask54_2423_8254" style="mask-type:luminance" maskUnits="userSpaceOnUse" x="62" y="37" width="14" height="14">
<path fill-rule="evenodd" clip-rule="evenodd" d="M62.6931 45.4529L62.8481 45.6095L62.8479 45.6159C64.0828 46.8626 64.6625 48.5203 64.5872 50.1529H75.5533V43.0303C74.7531 40.9258 73.5697 38.9357 72.003 37.1696L62.6931 37.1696L62.6931 45.4529Z" fill="white"/>
</mask>
<g mask="url(#mask54_2423_8254)">
<path fill-rule="evenodd" clip-rule="evenodd" d="M62.9251 41.8174C63.8789 38.5501 67.7133 36.4412 70.9497 37.4039C74.1858 38.3667 76.2749 42.2378 75.3212 45.5051C74.3676 48.7724 70.533 50.8813 67.2968 49.9187C64.0605 48.9558 61.9714 45.0847 62.9251 41.8174Z" fill="#ED8934"/>
</g>
<mask id="mask55_2423_8254" style="mask-type:luminance" maskUnits="userSpaceOnUse" x="63" y="38" width="14" height="14">
<path fill-rule="evenodd" clip-rule="evenodd" d="M63.4487 46.3246C64.6112 47.9293 64.8879 49.984 64.279 51.803H76.2967V45.4648C75.7481 43.124 74.7557 40.8676 73.3197 38.8323L63.4487 38.8323L63.4487 46.3246Z" fill="white"/>
</mask>
<g mask="url(#mask55_2423_8254)">
<path fill-rule="evenodd" clip-rule="evenodd" d="M63.9452 42.5925C65.3151 39.5558 69.5644 37.9507 72.572 39.3336C75.5799 40.7165 77.17 45.0062 75.8002 48.0429C74.4304 51.0795 70.1811 52.6846 67.1733 51.3017C64.1656 49.9188 62.5754 45.6291 63.9452 42.5925Z" fill="#EC8734"/>
</g>
<mask id="mask56_2423_8254" style="mask-type:luminance" maskUnits="userSpaceOnUse" x="63" y="40" width="14" height="14">
<path fill-rule="evenodd" clip-rule="evenodd" d="M63.9872 47.2221C64.7965 48.8886 64.7965 50.8545 63.9872 52.521V53.5011H76.4632C76.6264 52.6479 76.7314 51.7857 76.7784 50.9208V48.8223C76.6236 45.9718 75.8378 43.1497 74.4209 40.5876L63.9872 40.5876V47.2221H63.9872Z" fill="white"/>
</mask>
<g mask="url(#mask56_2423_8254)">
<path fill-rule="evenodd" clip-rule="evenodd" d="M64.8415 43.4907C66.5767 40.7329 71.1713 39.6982 73.9028 41.4501C76.6345 43.2019 77.6593 47.8404 75.9241 50.598C74.1889 53.3558 69.5945 54.3905 66.8628 52.6387C64.1311 50.8869 63.1063 46.2485 64.8415 43.4907Z" fill="#EB8534"/>
</g>
<mask id="mask57_2423_8254" style="mask-type:luminance" maskUnits="userSpaceOnUse" x="64" y="42" width="13" height="14">
<path fill-rule="evenodd" clip-rule="evenodd" d="M64.2852 47.9536C64.6975 49.1955 64.6975 50.5463 64.2852 51.7882L64.2852 55.2401H76.0461C77.2683 51.0234 77.0183 46.4641 75.2962 42.3875L64.2852 42.3875V47.9536L64.2852 47.9536Z" fill="white"/>
</mask>
<g mask="url(#mask57_2423_8254)">
<path fill-rule="evenodd" clip-rule="evenodd" d="M65.6025 44.4959C67.6501 42.0562 72.5113 41.6502 74.9277 43.7174C77.3442 45.7845 77.7464 50.6923 75.6988 53.1317C73.6515 55.5714 68.7902 55.9774 66.3736 53.9103C63.9571 51.8433 63.5549 46.9355 65.6025 44.4959Z" fill="#EA8334"/>
</g>
<mask id="mask58_2423_8254" style="mask-type:luminance" maskUnits="userSpaceOnUse" x="64" y="44" width="13" height="14">
<path fill-rule="evenodd" clip-rule="evenodd" d="M64.314 48.0462C64.6867 49.2319 64.6867 50.5112 64.314 51.6969L64.314 57.0239H75.4315C77.072 52.9273 77.2442 48.3713 75.9481 44.1782L64.314 44.1782V48.0462L64.314 48.0462Z" fill="white"/>
</mask>
<g mask="url(#mask58_2423_8254)">
<path fill-rule="evenodd" clip-rule="evenodd" d="M66.2214 45.5918C68.5271 43.5022 73.568 43.776 75.6378 46.1038C77.7078 48.4315 77.4364 53.5208 75.1307 55.6104C72.825 57.7 67.7841 57.426 65.7143 55.0983C63.6443 52.7706 63.9157 47.6814 66.2214 45.5918Z" fill="#E98135"/>
</g>
<mask id="mask59_2423_8254" style="mask-type:luminance" maskUnits="userSpaceOnUse" x="64" y="45" width="13" height="14">
<path fill-rule="evenodd" clip-rule="evenodd" d="M64.0498 47.3556C64.775 48.948 64.775 50.7942 64.0498 52.3865L64.0498 58.8493H74.5858C76.7033 54.8492 77.3063 50.247 76.395 45.9039L64.0498 45.9039V47.3556Z" fill="white"/>
</mask>
<g mask="url(#mask59_2423_8254)">
<path fill-rule="evenodd" clip-rule="evenodd" d="M66.6956 46.7579C69.2049 45.044 74.329 46.0418 76.0267 48.5749C77.7244 51.1082 76.736 56.2814 74.2269 57.9953C71.7176 59.7092 66.5934 58.7116 64.8958 56.1783C63.1981 53.645 64.1862 48.4718 66.6956 46.7579Z" fill="#E97F35"/>
</g>
<mask id="mask60_2423_8254" style="mask-type:luminance" maskUnits="userSpaceOnUse" x="63" y="47" width="14" height="14">
<path fill-rule="evenodd" clip-rule="evenodd" d="M64.1254 47.5322C64.9168 49.4284 64.7026 51.6509 63.4827 53.3704L63.4827 60.6988H73.4665C75.0471 58.3927 76.0665 55.8129 76.5246 53.1539V47.5322L64.1254 47.5322V47.5322Z" fill="white"/>
</mask>
<g mask="url(#mask60_2423_8254)">
<path fill-rule="evenodd" clip-rule="evenodd" d="M67.0177 47.9799C69.675 46.662 74.7755 48.4182 76.0812 51.101C77.3866 53.7838 75.647 58.9331 72.9897 60.251C70.3323 61.5691 65.2318 59.8129 63.9262 57.1301C62.6207 54.4474 64.3603 49.2979 67.0177 47.9799Z" fill="#E87D35"/>
</g>
<mask id="mask61_2423_8254" style="mask-type:luminance" maskUnits="userSpaceOnUse" x="62" y="49" width="14" height="14">
<path fill-rule="evenodd" clip-rule="evenodd" d="M64.5378 49.055C64.7804 50.8544 64.2168 52.7435 62.8467 54.1266L62.6357 54.3397L62.6357 62.5232H72.0458C73.8946 60.4245 75.2047 58.0124 75.9763 55.4694V49.055H64.5378V49.055Z" fill="white"/>
</mask>
<g mask="url(#mask61_2423_8254)">
<path fill-rule="evenodd" clip-rule="evenodd" d="M67.183 49.2427C69.9314 48.3344 74.8906 50.8712 75.7903 53.6458C76.69 56.4205 74.1775 61.4271 71.4292 62.3354C68.6808 63.2437 63.7214 60.707 62.8217 57.9323C61.922 55.1577 64.4347 50.151 67.183 49.2427Z" fill="#E77B35"/>
</g>
<mask id="mask62_2423_8254" style="mask-type:luminance" maskUnits="userSpaceOnUse" x="61" y="50" width="15" height="15">
<path fill-rule="evenodd" clip-rule="evenodd" d="M64.5622 50.4863C64.4277 51.8155 63.8561 53.1081 62.8474 54.1265L61.5482 55.4381L61.5482 64.2558H70.3764L71.2772 63.3463C72.9687 61.6386 74.2721 59.6874 75.1873 57.6045V50.4863H64.5622V50.4863Z" fill="white"/>
</mask>
<g mask="url(#mask62_2423_8254)">
<path fill-rule="evenodd" clip-rule="evenodd" d="M67.1784 50.5353C69.9589 50.0424 74.6505 53.3633 75.1387 56.1702C75.6271 58.9774 72.3377 63.7138 69.5571 64.2067C66.7766 64.6998 62.085 61.3789 61.5968 58.5718C61.1084 55.7648 64.3978 51.0281 67.1784 50.5353Z" fill="#E67935"/>
</g>
<mask id="mask63_2423_8254" style="mask-type:luminance" maskUnits="userSpaceOnUse" x="60" y="51" width="15" height="15">
<path fill-rule="evenodd" clip-rule="evenodd" d="M64.267 51.843C63.9812 52.6769 63.5086 53.46 62.849 54.1258L60.2646 56.7349L60.2646 65.8244H68.8236L71.2789 63.3456C72.3918 62.222 73.3367 60.993 74.1136 59.6905V51.843H64.267V51.843Z" fill="white"/>
</mask>
<g mask="url(#mask63_2423_8254)">
<path fill-rule="evenodd" clip-rule="evenodd" d="M66.9838 51.8442C69.7367 51.762 74.0309 55.8471 74.1124 58.6264C74.1938 61.4057 70.1474 65.7409 67.3945 65.8232C64.6415 65.9054 60.3473 61.8203 60.2659 59.041C60.1844 56.2618 64.2308 51.9265 66.9838 51.8442Z" fill="#E57735"/>
</g>
<mask id="mask64_2423_8254" style="mask-type:luminance" maskUnits="userSpaceOnUse" x="58" y="53" width="15" height="15">
<path fill-rule="evenodd" clip-rule="evenodd" d="M63.6628 53.1005C63.4333 53.4641 63.1613 53.8083 62.8468 54.1258L58.9183 58.0918L58.9183 67.1899H67.4687L71.2766 63.3456C71.8545 62.7622 72.3871 62.1504 72.8743 61.5146L72.8743 53.1005L63.6628 53.1005V53.1005Z" fill="white"/>
</mask>
<g mask="url(#mask64_2423_8254)">
<path fill-rule="evenodd" clip-rule="evenodd" d="M65.8997 53.1005C68.5851 53.1019 72.8757 57.4376 72.8743 60.1486C72.8729 62.8595 68.5783 67.1913 65.8929 67.1899C63.2078 67.1883 58.9169 62.8528 58.9183 60.1418C58.9199 57.4307 63.2143 53.0991 65.8997 53.1005Z" fill="#E47535"/>
</g>
<mask id="mask65_2423_8254" style="mask-type:luminance" maskUnits="userSpaceOnUse" x="57" y="54" width="15" height="15">
<path fill-rule="evenodd" clip-rule="evenodd" d="M62.6349 54.3422L57.5877 59.4376V68.5357H66.1381L71.2786 63.346C71.4035 63.22 71.5262 63.0927 71.6468 62.964V54.3422H62.6349V54.3422Z" fill="white"/>
</mask>
<g mask="url(#mask65_2423_8254)">
<path fill-rule="evenodd" clip-rule="evenodd" d="M64.6205 54.3422C67.237 54.3436 71.6482 58.8008 71.6468 61.4423C71.6454 64.0839 67.2304 68.5374 64.6138 68.5357C61.9974 68.5343 57.5861 64.0771 57.5877 61.4356C57.5891 58.7942 62.0041 54.3408 64.6205 54.3422Z" fill="#E37235"/>
</g>
<mask id="mask66_2423_8254" style="mask-type:luminance" maskUnits="userSpaceOnUse" x="56" y="55" width="15" height="15">
<path fill-rule="evenodd" clip-rule="evenodd" d="M61.405 55.5839L56.2545 60.7837V69.8818H64.8049L70.4169 64.2161V55.5839H61.405V55.5839Z" fill="white"/>
</mask>
<g mask="url(#mask66_2423_8254)">
<path fill-rule="evenodd" clip-rule="evenodd" d="M63.339 55.5839C65.8867 55.5853 70.4183 60.1643 70.4169 62.7362C70.4156 65.3082 65.8799 69.8832 63.3323 69.8818C60.7848 69.8804 56.2531 65.3014 56.2545 62.7296C56.2559 60.1575 60.7913 55.5825 63.339 55.5839Z" fill="#E27035"/>
</g>
<mask id="mask67_2423_8254" style="mask-type:luminance" maskUnits="userSpaceOnUse" x="54" y="56" width="16" height="16">
<path fill-rule="evenodd" clip-rule="evenodd" d="M60.1751 56.8243L54.9213 62.1284L54.9213 71.2265H63.4717L69.187 65.4565V56.8243H60.1751Z" fill="white"/>
</mask>
<g mask="url(#mask67_2423_8254)">
<path fill-rule="evenodd" clip-rule="evenodd" d="M62.0574 56.8243C64.5361 56.8257 69.1884 61.5263 69.187 64.0288C69.1856 66.5312 64.5296 71.2279 62.0509 71.2265C59.5719 71.2251 54.9199 66.5246 54.9213 64.0221C54.9227 61.5197 59.5787 56.8229 62.0574 56.8243Z" fill="#E16E35"/>
</g>
<mask id="mask68_2423_8254" style="mask-type:luminance" maskUnits="userSpaceOnUse" x="53" y="58" width="15" height="15">
<path fill-rule="evenodd" clip-rule="evenodd" d="M58.9451 58.0662L53.7152 63.3462C53.6732 63.3885 53.6309 63.43 53.588 63.4708L53.588 72.5727H62.0993C62.3535 72.3422 62.6031 72.1035 62.8476 71.8567L67.9571 66.6983V58.0662H58.9451V58.0662Z" fill="white"/>
</mask>
<g mask="url(#mask68_2423_8254)">
<path fill-rule="evenodd" clip-rule="evenodd" d="M60.7758 58.0662C63.1858 58.0676 67.9583 62.8897 67.9571 65.3227C67.9557 67.7558 63.179 72.5739 60.7693 72.5727C58.3593 72.5713 53.5866 67.7489 53.588 65.3161C53.5894 62.8831 58.3658 58.0648 60.7758 58.0662Z" fill="#E06C36"/>
</g>
<mask id="mask69_2423_8254" style="mask-type:luminance" maskUnits="userSpaceOnUse" x="52" y="59" width="15" height="15">
<path fill-rule="evenodd" clip-rule="evenodd" d="M57.7153 59.3078L53.7148 63.3465C53.2735 63.792 52.7803 64.1529 52.2548 64.4295L52.2548 73.9186H60.4353C61.2811 73.3103 62.0885 72.6231 62.8473 71.857L66.7272 67.94V59.3078H57.7153Z" fill="white"/>
</mask>
<g mask="url(#mask69_2423_8254)">
<path fill-rule="evenodd" clip-rule="evenodd" d="M59.4943 59.3078C61.8353 59.309 66.7284 64.2531 66.7272 66.6165C66.7258 68.9799 61.8288 73.9198 59.4877 73.9186C57.1467 73.9172 52.2536 68.9733 52.2548 66.6099C52.2562 64.2465 57.1533 59.3066 59.4943 59.3078Z" fill="#DF6A36"/>
</g>
<mask id="mask70_2423_8254" style="mask-type:luminance" maskUnits="userSpaceOnUse" x="50" y="60" width="16" height="16">
<path fill-rule="evenodd" clip-rule="evenodd" d="M56.4662 60.5679L53.7145 63.3459C52.9062 64.1618 51.9235 64.6945 50.8876 64.9438L50.8876 75.2582H58.2768C59.921 74.386 61.4645 73.252 62.847 71.8564L65.4389 69.2397V60.5679H56.4662Z" fill="white"/>
</mask>
<g mask="url(#mask70_2423_8254)">
<path fill-rule="evenodd" clip-rule="evenodd" d="M58.6414 60.5714C60.9087 60.722 65.5846 66.1068 65.4354 68.3958C65.286 70.6849 59.9524 75.4055 57.6851 75.2546C55.4177 75.104 50.7418 69.7192 50.8911 67.4304C51.0405 65.1414 56.3741 60.4207 58.6414 60.5714Z" fill="#DE6836"/>
</g>
<mask id="mask71_2423_8254" style="mask-type:luminance" maskUnits="userSpaceOnUse" x="49" y="61" width="15" height="16">
<path fill-rule="evenodd" clip-rule="evenodd" d="M55.2853 61.7613L53.7155 63.3462C52.5432 64.5294 51.0044 65.1169 49.4682 65.1086L49.4682 76.3304H55.8558C58.4084 75.4112 60.8042 73.9199 62.8479 71.8567L63.8991 70.7954V61.7613H55.2853V61.7613Z" fill="white"/>
</mask>
<g mask="url(#mask71_2423_8254)">
<path fill-rule="evenodd" clip-rule="evenodd" d="M58.2105 61.7983C60.3656 62.2613 64.321 68.4116 63.8624 70.5872C63.4038 72.7631 57.3118 76.7564 55.1568 76.2934C53.0017 75.8304 49.0463 69.6801 49.5049 67.5043C49.9634 65.3286 56.0555 61.3353 58.2105 61.7983Z" fill="#DD6636"/>
</g>
<mask id="mask72_2423_8254" style="mask-type:luminance" maskUnits="userSpaceOnUse" x="48" y="62" width="15" height="16">
<path fill-rule="evenodd" clip-rule="evenodd" d="M54.2381 62.8185L53.7154 63.3461C52.1777 64.8983 50.0092 65.4252 48.0432 64.927L48.0432 77.0508H53.2975C56.499 76.3903 59.5635 74.885 62.1408 72.5351V62.8185H54.2381V62.8185Z" fill="white"/>
</mask>
<g mask="url(#mask72_2423_8254)">
<path fill-rule="evenodd" clip-rule="evenodd" d="M57.6373 62.9293C59.6412 63.6715 62.7662 70.4813 62.0311 72.5044C61.2957 74.5274 54.5506 77.6823 52.5467 76.9399C50.5429 76.1977 47.4178 69.3881 48.153 67.3651C48.8883 65.3421 55.6335 62.1871 57.6373 62.9293Z" fill="#DD6436"/>
</g>
<mask id="mask73_2423_8254" style="mask-type:luminance" maskUnits="userSpaceOnUse" x="46" y="63" width="15" height="15">
<path fill-rule="evenodd" clip-rule="evenodd" d="M53.3187 63.7141C51.4074 65.3262 48.7312 65.5411 46.616 64.3589L46.616 77.216C51.2874 77.9416 56.1767 76.8941 60.2187 74.0735V63.7141H53.3187L53.3187 63.7141Z" fill="white"/>
</mask>
<g mask="url(#mask73_2423_8254)">
<path fill-rule="evenodd" clip-rule="evenodd" d="M56.9286 63.9553C58.7499 64.9392 60.9544 72.2866 59.9798 74.1253C59.005 75.9639 51.7274 78.1896 49.9061 77.2056C48.0849 76.2215 45.8803 68.8743 46.8549 67.0356C47.8298 65.1969 55.1074 62.9713 56.9286 63.9553Z" fill="#DC6236"/>
</g>
<mask id="mask74_2423_8254" style="mask-type:luminance" maskUnits="userSpaceOnUse" x="45" y="64" width="14" height="14">
<path fill-rule="evenodd" clip-rule="evenodd" d="M52.33 64.3898C50.5698 65.3482 48.4331 65.3482 46.673 64.3898H45.1547V76.9287C49.5125 77.9653 54.1646 77.4201 58.2131 75.2931V64.3898H52.33V64.3898Z" fill="white"/>
</mask>
<g mask="url(#mask74_2423_8254)">
<path fill-rule="evenodd" clip-rule="evenodd" d="M56.0933 64.8637C57.7077 66.05 58.9188 73.8032 57.7437 75.4331C56.5688 77.0631 48.8888 78.2855 47.2744 77.0994C45.66 75.9131 44.449 68.1598 45.6241 66.5298C46.7989 64.9 54.4789 63.6773 56.0933 64.8637Z" fill="#DB6036"/>
</g>
<mask id="mask75_2423_8254" style="mask-type:luminance" maskUnits="userSpaceOnUse" x="43" y="64" width="14" height="14">
<path fill-rule="evenodd" clip-rule="evenodd" d="M51.6201 64.7166C50.2577 65.2386 48.744 65.2386 47.3816 64.7166L43.5574 64.7166V76.4727C47.6906 77.8531 52.2028 77.7525 56.2808 76.1711V64.7166H51.6201V64.7166Z" fill="white"/>
</mask>
<g mask="url(#mask75_2423_8254)">
<path fill-rule="evenodd" clip-rule="evenodd" d="M55.1481 65.6465C56.538 66.9953 56.6957 75.0149 55.3595 76.4181C54.0235 77.8213 46.0798 77.9805 44.69 76.6315C43.3003 75.2827 43.1425 67.2631 44.4785 65.8599C45.8146 64.4569 53.7582 64.2977 55.1481 65.6465Z" fill="#DA5E36"/>
</g>
<mask id="mask76_2423_8254" style="mask-type:luminance" maskUnits="userSpaceOnUse" x="41" y="64" width="14" height="14">
<path fill-rule="evenodd" clip-rule="evenodd" d="M52.0823 64.5167C50.4548 65.306 48.5459 65.306 46.9184 64.5167L41.675 64.5167V75.7291C45.7547 77.6042 50.3599 77.9364 54.6258 76.7258V64.5167H52.0823Z" fill="white"/>
</mask>
<g mask="url(#mask76_2423_8254)">
<path fill-rule="evenodd" clip-rule="evenodd" d="M54.111 66.2978C55.2637 67.7703 54.3203 75.9079 52.8615 77.0716C51.4028 78.2352 43.3423 77.2828 42.1897 75.8102C41.0371 74.3375 41.9807 66.1999 43.4393 65.0362C44.8979 63.8728 52.9584 64.8252 54.111 66.2978Z" fill="#D95C36"/>
</g>
<mask id="mask77_2423_8254" style="mask-type:luminance" maskUnits="userSpaceOnUse" x="39" y="63" width="15" height="15">
<path fill-rule="evenodd" clip-rule="evenodd" d="M53.1552 63.8447C51.0105 65.5299 47.9878 65.5299 45.8433 63.8447L39.5891 63.8447V74.6056C43.7129 77.1779 48.6049 77.9983 53.2187 77.0666V63.8447H53.1552V63.8447Z" fill="white"/>
</mask>
<g mask="url(#mask77_2423_8254)">
<path fill-rule="evenodd" clip-rule="evenodd" d="M52.9977 66.8104C53.905 68.3684 51.8244 76.4657 50.2812 77.3816C48.7379 78.2975 40.7173 76.1971 39.8101 74.639C38.9029 73.081 40.9834 64.9837 42.5267 64.0678C44.0699 63.1519 52.0905 65.2523 52.9977 66.8104Z" fill="#D85A36"/>
</g>
<mask id="mask78_2423_8254" style="mask-type:luminance" maskUnits="userSpaceOnUse" x="37" y="62" width="15" height="16">
<path fill-rule="evenodd" clip-rule="evenodd" d="M51.9105 64.5957C49.7241 65.5711 47.0759 65.1544 45.2842 63.3458L44.823 62.8801H37.5056V73.0983C40.7758 75.8212 44.7414 77.2627 48.7479 77.4229H50.2506C50.8053 77.4007 51.3592 77.354 51.9105 77.2827V64.5957Z" fill="white"/>
</mask>
<g mask="url(#mask78_2423_8254)">
<path fill-rule="evenodd" clip-rule="evenodd" d="M51.8235 67.1779C52.4815 68.7837 49.244 76.6705 47.6534 77.3349C46.0629 77.9995 38.251 74.7308 37.5927 73.125C36.9346 71.5192 40.1721 63.6326 41.7627 62.968C43.3533 62.3036 51.1654 65.5722 51.8235 67.1779Z" fill="#D75837"/>
</g>
<mask id="mask79_2423_8254" style="mask-type:luminance" maskUnits="userSpaceOnUse" x="35" y="61" width="16" height="16">
<path fill-rule="evenodd" clip-rule="evenodd" d="M50.6255 65.0011C48.7504 65.3634 46.7364 64.8118 45.2847 63.3463L43.681 61.7272H35.5528V71.2514L36.1525 71.8568C38.7411 74.4703 41.8946 76.166 45.2162 76.9439H50.6255V65.0011Z" fill="white"/>
</mask>
<g mask="url(#mask79_2423_8254)">
<path fill-rule="evenodd" clip-rule="evenodd" d="M50.5985 67.3906C51.009 69.0066 46.6165 76.5025 45.0158 76.9167C43.4151 77.3311 35.9902 72.8965 35.5797 71.2805C35.1694 69.6645 39.5618 62.1689 41.1627 61.7544C42.7634 61.34 50.188 65.7746 50.5985 67.3906Z" fill="#D65637"/>
</g>
<mask id="mask80_2423_8254" style="mask-type:luminance" maskUnits="userSpaceOnUse" x="33" y="60" width="17" height="17">
<path fill-rule="evenodd" clip-rule="evenodd" d="M49.3374 65.1066C47.867 65.066 46.4087 64.4793 45.2864 63.3464L42.4061 60.4385H33.8118L33.8118 69.4921L36.1542 71.8569C38.0435 73.7644 40.2338 75.1829 42.5707 76.1126L49.3374 76.1126V65.1066Z" fill="white"/>
</mask>
<g mask="url(#mask80_2423_8254)">
<path fill-rule="evenodd" clip-rule="evenodd" d="M49.3335 67.4285C49.5036 69.018 43.988 75.937 42.4136 76.1087C40.8391 76.2804 33.9857 70.7121 33.8156 69.1226C33.6455 67.533 39.1611 60.6141 40.7356 60.4424C42.3101 60.2707 49.1635 65.839 49.3335 67.4285Z" fill="#D55437"/>
</g>
<path fill-rule="evenodd" clip-rule="evenodd" d="M48.0569 67.0002C48.0561 68.5296 41.7127 74.9288 40.1979 74.928C38.683 74.9272 32.3444 68.5231 32.3452 66.9938C32.346 65.4645 38.6894 59.0652 40.2042 59.066C41.7191 59.0668 48.0577 65.4709 48.0569 67.0002Z" fill="#D45237"/>
<mask id="mask81_2423_8254" style="mask-type:luminance" maskUnits="userSpaceOnUse" x="31" y="57" width="16" height="17">
<path fill-rule="evenodd" clip-rule="evenodd" d="M46.8269 64.4714C46.2712 64.1897 45.7499 63.8148 45.2861 63.3465L39.714 57.721L31.012 57.721V66.6661L36.1538 71.857C36.8179 72.5275 37.5192 73.1376 38.251 73.6873L46.8269 73.6873V64.4714Z" fill="white"/>
</mask>
<g mask="url(#mask81_2423_8254)">
<path fill-rule="evenodd" clip-rule="evenodd" d="M46.8269 65.7073C46.8261 67.1671 40.3622 73.6881 38.9163 73.6873C37.4704 73.6865 31.0112 67.1607 31.012 65.7009C31.0128 64.2412 37.4767 57.7202 38.9226 57.721C40.3685 57.7218 46.8277 64.2476 46.8269 65.7073Z" fill="#D35037"/>
</g>
<mask id="mask82_2423_8254" style="mask-type:luminance" maskUnits="userSpaceOnUse" x="29" y="56" width="17" height="17">
<path fill-rule="evenodd" clip-rule="evenodd" d="M45.597 63.6388C45.4907 63.5456 45.3868 63.4479 45.2857 63.3458L38.3808 56.3747H29.6787V65.3198L36.1534 71.8563C36.3533 72.0581 36.5565 72.2544 36.763 72.4453H45.597V63.6388Z" fill="white"/>
</mask>
<g mask="url(#mask82_2423_8254)">
<path fill-rule="evenodd" clip-rule="evenodd" d="M45.597 64.4132C45.5962 65.8035 39.0118 72.4461 37.6347 72.4453C36.2577 72.4445 29.6781 65.7971 29.6787 64.4068C29.6795 63.0166 36.2639 56.3739 37.641 56.3747C39.0182 56.3755 45.5978 63.0229 45.597 64.4132Z" fill="#D24E37"/>
</g>
<mask id="mask83_2423_8254" style="mask-type:luminance" maskUnits="userSpaceOnUse" x="28" y="55" width="17" height="17">
<path fill-rule="evenodd" clip-rule="evenodd" d="M44.3671 62.4194L37.0476 55.0297H28.3455V63.9749L35.5069 71.2046H44.3671V62.4194Z" fill="white"/>
</mask>
<g mask="url(#mask83_2423_8254)">
<path fill-rule="evenodd" clip-rule="evenodd" d="M44.3671 63.1204C44.3663 64.4411 37.6614 71.2052 36.3532 71.2046C35.0449 71.2038 28.3449 64.4347 28.3455 63.1139C28.3463 61.7932 35.0513 55.0291 36.3595 55.0297C37.6677 55.0305 44.3679 61.7996 44.3671 63.1204Z" fill="#D24C37"/>
</g>
<mask id="mask84_2423_8254" style="mask-type:luminance" maskUnits="userSpaceOnUse" x="27" y="53" width="17" height="17">
<path fill-rule="evenodd" clip-rule="evenodd" d="M43.137 61.1772L36.1525 54.1257C36.0115 53.9834 35.8791 53.8358 35.7552 53.6834H27.0123V62.589C27.2409 62.846 27.4776 63.0983 27.7224 63.3455L34.2768 69.9624H43.137V61.1772Z" fill="white"/>
</mask>
<g mask="url(#mask84_2423_8254)">
<path fill-rule="evenodd" clip-rule="evenodd" d="M43.137 61.826C43.1364 63.0773 36.3108 69.963 35.0716 69.9624C33.8321 69.9616 27.0115 63.0709 27.0123 61.8196C27.0129 60.5685 33.8385 53.6826 35.0777 53.6834C36.3172 53.684 43.1376 60.5747 43.137 61.826Z" fill="#D14A37"/>
</g>
<mask id="mask85_2423_8254" style="mask-type:luminance" maskUnits="userSpaceOnUse" x="25" y="52" width="17" height="17">
<path fill-rule="evenodd" clip-rule="evenodd" d="M41.9071 59.9365L36.1521 54.1263C35.6247 53.594 35.2168 52.9867 34.9283 52.3384L25.679 52.3384V60.9098C26.2818 61.7642 26.9628 62.5797 27.722 63.3461L33.0468 68.7217H41.9071V59.9365Z" fill="white"/>
</mask>
<g mask="url(#mask85_2423_8254)">
<path fill-rule="evenodd" clip-rule="evenodd" d="M41.9071 60.5332C41.9065 61.7149 34.9605 68.7223 33.79 68.7217C32.6195 68.7211 25.6784 61.7087 25.679 60.5268C25.6796 59.3451 32.6256 52.3376 33.7961 52.3384C34.9666 52.339 41.9077 59.3515 41.9071 60.5332Z" fill="#D04837"/>
</g>
<mask id="mask86_2423_8254" style="mask-type:luminance" maskUnits="userSpaceOnUse" x="24" y="50" width="17" height="18">
<path fill-rule="evenodd" clip-rule="evenodd" d="M40.6798 58.6957L36.1543 54.1269C35.2742 53.2385 34.7268 52.1414 34.5121 50.9934L24.3484 50.9934V58.7207C25.2132 60.3851 26.3384 61.9476 27.7242 63.3467L31.8195 67.481H40.6798V58.6957Z" fill="white"/>
</mask>
<g mask="url(#mask86_2423_8254)">
<path fill-rule="evenodd" clip-rule="evenodd" d="M40.6798 59.2403C40.6792 60.3526 33.6126 67.4816 32.511 67.481C31.4092 67.4804 24.3478 60.3462 24.3484 59.2341C24.349 58.1218 31.4156 50.9928 32.5172 50.9934C33.6189 50.994 40.6804 58.1282 40.6798 59.2403Z" fill="#CF4637"/>
</g>
<mask id="mask87_2423_8254" style="mask-type:luminance" maskUnits="userSpaceOnUse" x="23" y="49" width="17" height="18">
<path fill-rule="evenodd" clip-rule="evenodd" d="M39.4158 57.4208L36.1528 54.1265C34.9188 52.8808 34.3388 51.2248 34.413 49.5935L23.1198 49.5935V55.7789C24.0108 58.5459 25.5451 61.1478 27.7228 63.3463L30.3964 66.0455H39.4158V57.4208Z" fill="white"/>
</mask>
<g mask="url(#mask87_2423_8254)">
<path fill-rule="evenodd" clip-rule="evenodd" d="M39.4136 58.9116C39.2775 59.9453 31.2099 66.1806 30.186 66.0432C29.1623 65.9058 22.9859 57.761 23.122 56.7275C23.2581 55.6939 31.3257 49.4583 32.3496 49.5957C33.3733 49.7332 39.5497 57.878 39.4136 58.9116Z" fill="#CE4438"/>
</g>
<mask id="mask88_2423_8254" style="mask-type:luminance" maskUnits="userSpaceOnUse" x="22" y="48" width="17" height="17">
<path fill-rule="evenodd" clip-rule="evenodd" d="M38.2241 56.2189L36.152 54.127C34.5691 52.5292 34.0624 50.2563 34.6319 48.2263L22.2885 48.2263V51.7894C22.7087 56.009 24.5199 60.1141 27.7219 63.3468L28.6804 64.3144H38.2241V56.2189Z" fill="white"/>
</mask>
<g mask="url(#mask88_2423_8254)">
<path fill-rule="evenodd" clip-rule="evenodd" d="M38.2142 58.5385C37.9521 59.4751 28.9373 64.569 28.0096 64.3044C27.0821 64.0398 22.0362 54.9388 22.2983 54.0024C22.5604 53.0658 31.5752 47.9719 32.5029 48.2362C33.4306 48.5008 38.4763 57.6019 38.2142 58.5385Z" fill="#CD4238"/>
</g>
<mask id="mask89_2423_8254" style="mask-type:luminance" maskUnits="userSpaceOnUse" x="22" y="46" width="16" height="17">
<path fill-rule="evenodd" clip-rule="evenodd" d="M37.123 55.1055L36.1532 54.1263C34.2169 52.1719 33.891 49.2071 35.1755 46.9125L22.4219 46.9125C21.5889 52.2928 23.0432 57.9642 26.7848 62.3283H37.123V55.1055Z" fill="white"/>
</mask>
<g mask="url(#mask89_2423_8254)">
<path fill-rule="evenodd" clip-rule="evenodd" d="M37.0975 58.0158C36.7355 58.8422 26.9423 62.6692 26.1237 62.3037C25.3051 61.9384 21.5144 52.0515 21.8762 51.225C22.2382 50.3986 32.0313 46.5716 32.8502 46.9371C33.6688 47.3024 37.4595 57.1893 37.0975 58.0158Z" fill="#CC4038"/>
</g>
<mask id="mask90_2423_8254" style="mask-type:luminance" maskUnits="userSpaceOnUse" x="22" y="45" width="15" height="16">
<path fill-rule="evenodd" clip-rule="evenodd" d="M36.128 54.1008C33.8401 51.7641 33.8335 48.0067 36.108 45.6619L22.6581 45.6619C21.567 50.5479 22.4014 55.7838 25.1614 60.1349H36.128V54.1008Z" fill="white"/>
</mask>
<g mask="url(#mask90_2423_8254)">
<path fill-rule="evenodd" clip-rule="evenodd" d="M36.0763 57.3512C35.6409 58.0601 25.2515 60.5222 24.5494 60.0827C23.8472 59.643 21.4084 49.1545 21.8437 48.4455C22.2793 47.7366 32.6685 45.2745 33.3706 45.714C34.0728 46.1537 36.5116 56.6423 36.0763 57.3512Z" fill="#CB3D38"/>
</g>
<mask id="mask91_2423_8254" style="mask-type:luminance" maskUnits="userSpaceOnUse" x="22" y="44" width="14" height="14">
<path fill-rule="evenodd" clip-rule="evenodd" d="M35.2868 53.0202C34.1138 51.0949 34.1138 48.6473 35.2868 46.722V44.454H22.9694C21.6854 48.8409 21.9969 53.6024 23.9036 57.8075H35.2868V53.0202V53.0202Z" fill="white"/>
</mask>
<g mask="url(#mask91_2423_8254)">
<path fill-rule="evenodd" clip-rule="evenodd" d="M35.1612 56.5568C34.6778 57.1455 23.8832 58.1674 23.3 57.6793C22.7169 57.1915 21.7047 46.2935 22.1879 45.7047C22.6714 45.116 33.4661 44.0941 34.0493 44.5822C34.6323 45.07 35.6446 55.968 35.1612 56.5568Z" fill="#CA3B38"/>
</g>
<mask id="mask92_2423_8254" style="mask-type:luminance" maskUnits="userSpaceOnUse" x="22" y="42" width="14" height="14">
<path fill-rule="evenodd" clip-rule="evenodd" d="M35.0627 52.6181C34.1884 50.8985 34.1884 48.8429 35.0627 47.1233V42.8477H23.5178C21.8896 47.0012 21.7637 51.6157 23.1402 55.8405H35.0627V52.6181Z" fill="white"/>
</mask>
<g mask="url(#mask92_2423_8254)">
<path fill-rule="evenodd" clip-rule="evenodd" d="M34.3574 55.6481C33.8502 56.1181 22.8478 55.6419 22.3823 55.1298C21.9167 54.6175 22.3884 43.5099 22.8957 43.0401C23.4032 42.5701 34.4053 43.0461 34.8709 43.5584C35.3364 44.0705 34.8647 55.1781 34.3574 55.6481Z" fill="#C93938"/>
</g>
<mask id="mask93_2423_8254" style="mask-type:luminance" maskUnits="userSpaceOnUse" x="22" y="40" width="14" height="15">
<path fill-rule="evenodd" clip-rule="evenodd" d="M35.8746 53.8252C33.9178 51.564 33.9178 48.1773 35.8746 45.916V40.4478H24.6579C22.1989 44.8073 21.5807 49.9375 22.8034 54.6845H35.8746V53.8252Z" fill="white"/>
</mask>
<g mask="url(#mask93_2423_8254)">
<path fill-rule="evenodd" clip-rule="evenodd" d="M33.6804 54.6426C33.171 54.9988 22.1678 52.983 21.8149 52.4687C21.4623 51.9544 23.4588 40.846 23.9682 40.4897C24.4777 40.1337 35.4808 42.1492 35.8337 42.6636C36.1866 43.1779 34.1899 54.2863 33.6804 54.6426Z" fill="#C83738"/>
</g>
<mask id="mask94_2423_8254" style="mask-type:luminance" maskUnits="userSpaceOnUse" x="22" y="38" width="15" height="16">
<path fill-rule="evenodd" clip-rule="evenodd" d="M35.663 53.5675C33.8384 51.2065 34.0018 47.7878 36.1531 45.6163L36.9303 44.8316V38.082L26.2379 38.082C22.7419 42.5534 21.5128 48.241 22.5508 53.5675H35.663Z" fill="white"/>
</mask>
<g mask="url(#mask94_2423_8254)">
<path fill-rule="evenodd" clip-rule="evenodd" d="M33.1286 53.5549C32.6369 53.8056 21.8513 50.227 21.6029 49.7305C21.3545 49.2342 24.8993 38.3453 25.391 38.0945C25.8828 37.8438 36.6684 41.4226 36.9168 41.9189C37.1651 42.4154 33.6204 53.3041 33.1286 53.5549Z" fill="#C73538"/>
</g>
<mask id="mask95_2423_8254" style="mask-type:luminance" maskUnits="userSpaceOnUse" x="22" y="35" width="17" height="18">
<path fill-rule="evenodd" clip-rule="evenodd" d="M34.9558 52.3967C33.9373 50.1723 34.3364 47.4492 36.1531 45.6155L38.1139 43.6359V35.8913H28.2226L27.723 36.3957C23.3994 40.7607 21.6117 46.7163 22.3599 52.3967H34.9558Z" fill="white"/>
</mask>
<g mask="url(#mask95_2423_8254)">
<path fill-rule="evenodd" clip-rule="evenodd" d="M32.7184 52.3932C32.262 52.5497 21.9241 47.4096 21.7691 46.949C21.6139 46.4883 26.7055 36.0515 27.1617 35.8948C27.6181 35.7383 37.956 40.8784 38.111 41.3392C38.2662 41.7999 33.1748 52.2368 32.7184 52.3932Z" fill="#C63338"/>
</g>
<mask id="mask96_2423_8254" style="mask-type:luminance" maskUnits="userSpaceOnUse" x="22" y="33" width="18" height="19">
<path fill-rule="evenodd" clip-rule="evenodd" d="M34.5463 51.1696C34.1239 49.2313 34.6594 47.1231 36.1527 45.6158L39.3929 42.3445V33.9385H30.1565L27.7226 36.396C24.6044 39.5441 22.8052 43.5195 22.325 47.6224L22.325 51.1696H34.5463Z" fill="white"/>
</mask>
<g mask="url(#mask96_2423_8254)">
<path fill-rule="evenodd" clip-rule="evenodd" d="M32.4593 51.1689C32.0532 51.2458 22.4016 44.5798 22.3257 44.1697C22.2496 43.7599 28.8524 34.016 29.2584 33.9391C29.6645 33.8623 39.3161 40.5283 39.3922 40.9383C39.4683 41.3482 32.8655 51.0921 32.4593 51.1689Z" fill="#C63138"/>
</g>
<mask id="mask97_2423_8254" style="mask-type:luminance" maskUnits="userSpaceOnUse" x="23" y="32" width="18" height="18">
<path fill-rule="evenodd" clip-rule="evenodd" d="M34.4078 49.8902C34.403 48.3438 34.985 46.7958 36.1539 45.616L40.7476 40.9782V32.2706H31.8097L27.7238 36.3962C25.6819 38.4576 24.2056 40.8738 23.2949 43.4482L23.2949 49.8902H34.4078Z" fill="white"/>
</mask>
<g mask="url(#mask97_2423_8254)">
<path fill-rule="evenodd" clip-rule="evenodd" d="M32.3815 49.8902C32.0375 49.9045 23.309 41.7915 23.2949 41.4441C23.2808 41.0969 31.3169 32.2849 31.6608 32.2706C32.0048 32.2564 40.7333 40.3695 40.7476 40.7168C40.7617 41.064 32.7254 49.876 32.3815 49.8902Z" fill="#C52F39"/>
</g>
<mask id="mask98_2423_8254" style="mask-type:luminance" maskUnits="userSpaceOnUse" x="24" y="30" width="19" height="19">
<path fill-rule="evenodd" clip-rule="evenodd" d="M34.5347 48.6293C34.7643 47.525 35.3038 46.4732 36.1532 45.6159L42.0968 39.6153V33.1632L39.8458 30.8906L33.1755 30.8906L27.7231 36.3961C26.4309 37.7007 25.3651 39.1474 24.5259 40.6864L24.5259 48.6293H34.5347Z" fill="white"/>
</mask>
<g mask="url(#mask98_2423_8254)">
<path fill-rule="evenodd" clip-rule="evenodd" d="M33.3131 48.6293C33.0377 48.6293 24.5259 40.0398 24.5259 39.7616C24.5259 39.4836 33.0343 30.8906 33.3097 30.8906C33.5851 30.8906 42.0968 39.4802 42.0968 39.7582C42.0968 40.0362 33.5884 48.6293 33.3131 48.6293Z" fill="#C42D39"/>
</g>
<mask id="mask99_2423_8254" style="mask-type:luminance" maskUnits="userSpaceOnUse" x="25" y="29" width="19" height="19">
<path fill-rule="evenodd" clip-rule="evenodd" d="M34.9367 47.3873C35.2247 46.7452 35.6302 46.1437 36.1531 45.6159L43.4287 38.2705V34.508L38.5122 29.5443H34.5088L27.7231 36.3961C26.9951 37.131 26.339 37.9111 25.7548 38.7273L25.7548 47.3873H34.9367Z" fill="white"/>
</mask>
<g mask="url(#mask99_2423_8254)">
<path fill-rule="evenodd" clip-rule="evenodd" d="M34.5935 47.3873C34.3869 47.3873 25.7548 38.6761 25.7548 38.4676C25.7548 38.259 34.3835 29.5443 34.59 29.5443C34.7966 29.5443 43.4287 38.2554 43.4287 38.464C43.4287 38.6726 34.8002 47.3873 34.5935 47.3873Z" fill="#C32B39"/>
</g>
<mask id="mask100_2423_8254" style="mask-type:luminance" maskUnits="userSpaceOnUse" x="26" y="28" width="19" height="19">
<path fill-rule="evenodd" clip-rule="evenodd" d="M35.6863 46.1453C35.8298 45.962 35.9855 45.7851 36.1532 45.6158L44.7609 36.9255V35.8529L37.1787 28.198L35.8422 28.198L27.7231 36.396C27.4678 36.6538 27.2213 36.9171 26.9836 37.1856L26.9836 46.1453H35.6863Z" fill="white"/>
</mask>
<g mask="url(#mask100_2423_8254)">
<path fill-rule="evenodd" clip-rule="evenodd" d="M35.8741 46.1453C35.7364 46.1453 26.9836 37.3125 26.9836 37.1735C26.9836 37.0345 35.7328 28.198 35.8705 28.198C36.0082 28.198 44.7609 37.0308 44.7609 37.1699C44.7609 37.3089 36.0118 46.1453 35.8741 46.1453Z" fill="#C22939"/>
</g>
<mask id="mask101_2423_8254" style="mask-type:luminance" maskUnits="userSpaceOnUse" x="28" y="26" width="19" height="19">
<path fill-rule="evenodd" clip-rule="evenodd" d="M44.2685 26.8517L46.0937 28.6944V26.8517H44.2685ZM36.8585 44.9036L45.2918 36.3895L36.5101 27.5235L28.2122 35.9022V44.9036H36.8585Z" fill="white"/>
</mask>
<g mask="url(#mask101_2423_8254)">
<path fill-rule="evenodd" clip-rule="evenodd" d="M37.1543 44.9033C37.0853 44.9033 28.2122 35.9489 28.2122 35.8793C28.2122 35.8099 37.0817 26.8517 37.1507 26.8517C37.2194 26.8517 46.0928 35.8061 46.0928 35.8757C46.0928 35.9451 37.2232 44.9033 37.1543 44.9033Z" fill="#C12739"/>
</g>
<mask id="mask102_2423_8254" style="mask-type:luminance" maskUnits="userSpaceOnUse" x="29" y="25" width="19" height="19">
<path fill-rule="evenodd" clip-rule="evenodd" d="M42.9326 25.5051L47.4234 30.0388V25.5051H42.9326ZM38.0886 43.6614L45.2917 36.3892L36.5099 27.5233L29.4409 34.6611V43.6614H38.0886Z" fill="white"/>
</mask>
<g mask="url(#mask102_2423_8254)">
<path fill-rule="evenodd" clip-rule="evenodd" d="M38.4346 43.6611L29.4409 34.5851L38.4308 25.5051L47.4246 34.5813L38.4346 43.6611Z" fill="#C02539"/>
</g>
</g>
</svg>
